<?xml version="1.0" encoding="UTF-8" standalone="no"?>
<svg
   xmlns:dc="http://purl.org/dc/elements/1.1/"
   xmlns:cc="http://creativecommons.org/ns#"
   xmlns:rdf="http://www.w3.org/1999/02/22-rdf-syntax-ns#"
   xmlns:svg="http://www.w3.org/2000/svg"
   xmlns="http://www.w3.org/2000/svg"
   viewBox="0 0 100.3836 47.318268"
   height="47.318268"
   width="100.3836"
   xml:space="preserve"
   id="svg2"
   version="1.1"><metadata
     id="metadata8"><rdf:RDF><cc:Work
         rdf:about=""><dc:format>image/svg+xml</dc:format><dc:type
           rdf:resource="http://purl.org/dc/dcmitype/StillImage" /></cc:Work></rdf:RDF></metadata><defs
     id="defs6"><clipPath
       id="clipPath18"
       clipPathUnits="userSpaceOnUse"><path
         id="path16"
         d="M 0,35.489 H 75.288 V 0 H 0 Z" /></clipPath></defs><g
     transform="matrix(1.3333333,0,0,-1.3333333,0,47.318267)"
     id="g10"><g
       id="g12"><g
         clip-path="url(#clipPath18)"
         id="g14"><g
           transform="translate(8.1182,23.8323)"
           id="g20"><path
             id="path22"
             style="fill:#231f20;fill-opacity:1;fill-rule:nonzero;stroke:none"
             d="M 0,0 C 0,0.441 -0.046,0.817 -0.137,1.128 -0.229,1.438 -0.351,1.693 -0.503,1.893 -0.662,2.095 -0.843,2.24 -1.043,2.328 -1.244,2.416 -1.452,2.46 -1.668,2.46 -1.897,2.46 -2.105,2.419 -2.291,2.338 -2.477,2.257 -2.656,2.112 -2.829,1.902 -2.981,1.71 -3.105,1.454 -3.2,1.136 -3.295,0.817 -3.342,0.437 -3.342,-0.005 c 0,-0.455 0.045,-0.833 0.135,-1.133 0.09,-0.3 0.212,-0.552 0.368,-0.755 0.159,-0.206 0.341,-0.353 0.543,-0.44 0.202,-0.088 0.412,-0.132 0.628,-0.132 0.219,0 0.432,0.047 0.637,0.142 0.206,0.094 0.384,0.241 0.533,0.44 0.159,0.216 0.282,0.468 0.368,0.755 C -0.043,-0.841 0,-0.465 0,0 m 1.923,-0.005 c 0,-1.199 -0.32,-2.141 -0.962,-2.829 -0.641,-0.687 -1.519,-1.031 -2.635,-1.031 -1.118,0 -1.997,0.348 -2.634,1.044 -0.637,0.695 -0.957,1.634 -0.957,2.816 0,1.192 0.32,2.134 0.957,2.826 0.637,0.693 1.516,1.039 2.634,1.039 1.116,0 1.994,-0.345 2.635,-1.034 0.642,-0.689 0.962,-1.633 0.962,-2.831" /></g><g
           transform="translate(16.3106,26.1233)"
           id="g24"><path
             id="path26"
             style="fill:#231f20;fill-opacity:1;fill-rule:nonzero;stroke:none"
             d="m 0,0 h -3.112 v -1.399 h 2.863 v -1.415 h -2.863 v -3.187 h -1.853 v 7.415 l 4.965,0 z" /></g><g
           transform="translate(22.4414,26.1233)"
           id="g28"><path
             id="path30"
             style="fill:#231f20;fill-opacity:1;fill-rule:nonzero;stroke:none"
             d="m 0,0 h -3.112 v -1.399 h 2.863 v -1.415 h -2.863 v -3.187 h -1.853 v 7.415 l 4.965,0 z" /></g><g
           transform="translate(27.4668,25.2669)"
           id="g32"><path
             id="path34"
             style="fill:#231f20;fill-opacity:1;fill-rule:nonzero;stroke:none"
             d="m 0,0 c 0,0.186 -0.036,0.346 -0.107,0.48 -0.072,0.135 -0.191,0.239 -0.357,0.312 -0.116,0.049 -0.245,0.081 -0.388,0.094 -0.143,0.013 -0.321,0.02 -0.533,0.02 h -0.623 v -1.997 h 0.533 c 0.259,0 0.479,0.016 0.661,0.047 0.18,0.032 0.334,0.099 0.46,0.202 0.12,0.093 0.208,0.204 0.266,0.334 C -0.029,-0.379 0,-0.209 0,0 M 2.998,-5.145 H 0.727 L -1.34,-2.426 H -2.008 V -5.145 H -3.86 v 7.416 h 2.983 c 0.412,0 0.771,-0.026 1.076,-0.078 C 0.504,2.142 0.786,2.035 1.046,1.872 1.312,1.703 1.521,1.488 1.678,1.228 1.834,0.967 1.912,0.636 1.912,0.234 1.912,-0.334 1.784,-0.795 1.528,-1.148 1.272,-1.502 0.931,-1.783 0.503,-1.992 Z" /></g><g
           transform="translate(31.2168,20.1218)"
           id="g36"><path
             id="path38"
             style="fill:#231f20;fill-opacity:1;fill-rule:nonzero;stroke:none"
             d="M 0,0 V 7.416 H 5.015 V 6.001 H 1.853 V 4.702 H 4.766 V 3.287 H 1.853 V 1.415 H 5.015 L 5.015,0 Z" /></g><g
           transform="translate(45.8535,26.1233)"
           id="g40"><path
             id="path42"
             style="fill:#231f20;fill-opacity:1;fill-rule:nonzero;stroke:none"
             d="m 0,0 h -3.113 v -1.399 h 2.864 v -1.415 h -2.864 v -3.187 h -1.853 v 7.415 l 4.966,0 z" /></g><g
           transform="translate(51.9688,20.1218)"
           id="g44"><path
             id="path46"
             style="fill:#231f20;fill-opacity:1;fill-rule:nonzero;stroke:none"
             d="m 0,0 h -4.95 v 7.416 h 1.863 V 1.415 H 0 Z" /></g><g
           transform="translate(56.5156,22.9807)"
           id="g48"><path
             id="path50"
             style="fill:#231f20;fill-opacity:1;fill-rule:nonzero;stroke:none"
             d="M 0,0 -0.757,2.445 -1.514,0 Z m -4.253,-2.859 2.505,7.416 H 0.284 L 2.789,-2.859 H 0.872 l -0.463,1.514 h -2.331 l -0.463,-1.514 z" /></g><g
           transform="translate(62.5371,19.9876)"
           id="g52"><path
             id="path54"
             style="fill:#231f20;fill-opacity:1;fill-rule:nonzero;stroke:none"
             d="m 0,0 c -0.567,0 -1.066,0.055 -1.496,0.164 -0.431,0.109 -0.83,0.246 -1.198,0.408 v 1.763 h 0.169 c 0.372,-0.315 0.782,-0.557 1.23,-0.727 0.448,-0.169 0.883,-0.254 1.305,-0.254 0.106,0 0.247,0.012 0.421,0.035 0.174,0.024 0.314,0.06 0.421,0.11 0.129,0.056 0.239,0.135 0.329,0.236 0.09,0.102 0.133,0.235 0.133,0.401 0,0.186 -0.072,0.338 -0.218,0.454 C 0.949,2.706 0.775,2.791 0.573,2.844 0.32,2.91 0.051,2.973 -0.236,3.033 c -0.287,0.06 -0.556,0.133 -0.805,0.219 -0.574,0.203 -0.986,0.475 -1.235,0.817 -0.249,0.342 -0.373,0.77 -0.373,1.285 0,0.694 0.294,1.255 0.881,1.686 0.587,0.43 1.322,0.645 2.202,0.645 0.441,0 0.88,-0.045 1.317,-0.135 C 2.188,7.46 2.578,7.339 2.924,7.187 V 5.493 H 2.759 C 2.483,5.729 2.147,5.928 1.751,6.091 1.354,6.253 0.946,6.335 0.528,6.335 0.365,6.335 0.22,6.323 0.09,6.3 -0.04,6.277 -0.176,6.232 -0.318,6.166 -0.435,6.112 -0.535,6.034 -0.62,5.929 -0.705,5.824 -0.747,5.708 -0.747,5.578 -0.747,5.389 -0.68,5.238 -0.545,5.127 -0.411,5.016 -0.151,4.916 0.234,4.826 0.483,4.77 0.723,4.714 0.954,4.662 1.185,4.608 1.431,4.535 1.693,4.442 2.208,4.256 2.591,4.007 2.842,3.693 3.092,3.379 3.218,2.965 3.218,2.45 3.218,1.713 2.928,1.12 2.349,0.672 1.769,0.224 0.986,0 0,0" /></g><g
           transform="translate(73.1699,20.1218)"
           id="g56"><path
             id="path58"
             style="fill:#231f20;fill-opacity:1;fill-rule:nonzero;stroke:none"
             d="M 0,0 H -1.862 V 3.287 H -4.397 V 0 H -6.26 v 7.416 h 1.863 V 4.702 h 2.535 V 7.416 H 0 Z" /></g><g
           transform="translate(73.7979,32.9221)"
           id="g60"><path
             id="path62"
             style="fill:#231f20;fill-opacity:1;fill-rule:nonzero;stroke:none"
             d="m 0,0 h -71.867 c -0.276,0 -0.5,0.224 -0.5,0.5 0,0.276 0.224,0.5 0.5,0.5 H 0 C 0.276,1 0.5,0.776 0.5,0.5 0.5,0.224 0.276,0 0,0" /></g><g
           transform="translate(73.7979,2.3225)"
           id="g64"><path
             id="path66"
             style="fill:#231f20;fill-opacity:1;fill-rule:nonzero;stroke:none"
             d="m 0,0 h -71.867 c -0.276,0 -0.5,0.224 -0.5,0.5 0,0.276 0.224,0.5 0.5,0.5 H 0 C 0.276,1 0.5,0.776 0.5,0.5 0.5,0.224 0.276,0 0,0" /></g></g></g></g></svg>