<?xml version="1.0" encoding="UTF-8" standalone="no"?>
<svg
   xmlns:dc="http://purl.org/dc/elements/1.1/"
   xmlns:cc="http://creativecommons.org/ns#"
   xmlns:rdf="http://www.w3.org/1999/02/22-rdf-syntax-ns#"
   xmlns:svg="http://www.w3.org/2000/svg"
   xmlns="http://www.w3.org/2000/svg"
   viewBox="0 0 32.077599 32.1124"
   height="32.1124"
   width="32.077599"
   xml:space="preserve"
   id="svg2"
   version="1.1"><metadata
     id="metadata8"><rdf:RDF><cc:Work
         rdf:about=""><dc:format>image/svg+xml</dc:format><dc:type
           rdf:resource="http://purl.org/dc/dcmitype/StillImage" /></cc:Work></rdf:RDF></metadata><defs
     id="defs6"><clipPath
       id="clipPath18"
       clipPathUnits="userSpaceOnUse"><path
         id="path16"
         d="M 0,24.084 H 24.058 V 0 H 0 Z" /></clipPath></defs><g
     transform="matrix(1.3333333,0,0,-1.3333333,0,32.1124)"
     id="g10"><g
       id="g12"><g
         clip-path="url(#clipPath18)"
         id="g14"><g
           transform="translate(10.6628,6.9799)"
           id="g20"><path
             id="path22"
             style="fill:#231f20;fill-opacity:1;fill-rule:nonzero;stroke:none"
             d="M 0,0 C 0.06,-0.066 -0.075,0.048 0,0" /></g><g
           transform="translate(10.5641,7.0229)"
           id="g24"><path
             id="path26"
             style="fill:#231f20;fill-opacity:1;fill-rule:nonzero;stroke:none"
             d="M 0,0 C 0.06,-0.066 -0.075,0.048 0,0" /></g><g
           transform="translate(23.0426,12.3217)"
           id="g28"><path
             id="path30"
             style="fill:#231f20;fill-opacity:1;fill-rule:nonzero;stroke:none"
             d="m 0,0 h -22.146 c -0.277,0 -0.5,0.224 -0.5,0.5 0,0.276 0.223,0.5 0.5,0.5 H 0 C 0.276,1 0.5,0.776 0.5,0.5 0.5,0.224 0.276,0 0,0" /></g><g
           transform="translate(7.2809,3.542)"
           id="g32"><path
             id="path34"
             style="fill:#231f20;fill-opacity:1;fill-rule:nonzero;stroke:none"
             d="m 0,0 c -0.276,0 -0.5,0.224 -0.5,0.5 v 16.381 c 0,0.276 0.224,0.5 0.5,0.5 0.276,0 0.5,-0.224 0.5,-0.5 V 0.5 C 0.5,0.224 0.276,0 0,0" /></g><g
           transform="translate(3.6881,16.5083)"
           id="g36"><path
             id="path38"
             style="fill:#231f20;fill-opacity:1;fill-rule:nonzero;stroke:none"
             d="M 0,0 C -0.12,0 -0.376,-0.046 -0.686,-0.556 -0.974,-1.031 -0.882,-1.319 -0.788,-1.494 -0.345,-2.319 1.459,-2.877 2.727,-3.065 1.956,-1.625 0.826,-0.048 0.04,-0.001 0.029,-0.001 0.016,0 0,0 m 0.217,-8.535 c -0.044,0 -0.089,0.006 -0.134,0.018 -0.266,0.074 -0.421,0.349 -0.348,0.615 0.033,0.121 0.707,2.497 2.428,3.926 -1.315,0.25 -3.202,0.833 -3.832,2.009 -0.224,0.416 -0.383,1.089 0.128,1.93 C -0.993,0.865 -0.342,1.021 0.1,0.997 1.975,0.884 3.718,-2.752 4.048,-3.48 4.104,-3.604 4.107,-3.746 4.057,-3.872 4.006,-3.999 3.907,-4.099 3.78,-4.15 1.593,-5.035 0.708,-8.137 0.699,-8.168 0.637,-8.39 0.436,-8.535 0.217,-8.535" /></g><g
           transform="translate(10.8332,16.5083)"
           id="g40"><path
             id="path42"
             style="fill:#231f20;fill-opacity:1;fill-rule:nonzero;stroke:none"
             d="m 0,0 c -0.016,0 -0.029,-0.001 -0.04,-0.001 -0.788,-0.048 -1.918,-1.624 -2.687,-3.064 1.267,0.188 3.072,0.745 3.516,1.571 0.093,0.175 0.185,0.463 -0.103,0.938 C 0.376,-0.046 0.12,0 0,0 m -0.217,-8.535 c -0.219,0 -0.42,0.145 -0.482,0.367 -0.009,0.031 -0.894,3.133 -3.081,4.018 -0.127,0.051 -0.226,0.151 -0.277,0.278 -0.05,0.126 -0.047,0.268 0.009,0.392 0.33,0.728 2.073,4.364 3.948,4.477 0.444,0.031 1.093,-0.131 1.641,-1.034 0.511,-0.841 0.352,-1.514 0.128,-1.93 -0.63,-1.176 -2.517,-1.759 -3.832,-2.009 1.721,-1.429 2.395,-3.805 2.428,-3.926 0.073,-0.266 -0.082,-0.541 -0.348,-0.615 -0.045,-0.012 -0.09,-0.018 -0.134,-0.018" /></g><g
           transform="translate(19.9142,8.2529)"
           id="g44"><path
             id="path46"
             style="fill:#231f20;fill-opacity:1;fill-rule:nonzero;stroke:none"
             d="m 0,0 h -5.312 c -0.276,0 -0.5,0.224 -0.5,0.5 0,0.276 0.224,0.5 0.5,0.5 H 0 C 0.276,1 0.5,0.776 0.5,0.5 0.5,0.224 0.276,0 0,0" /></g><g
           transform="translate(19.9142,5.8037)"
           id="g48"><path
             id="path50"
             style="fill:#231f20;fill-opacity:1;fill-rule:nonzero;stroke:none"
             d="m 0,0 h -5.312 c -0.276,0 -0.5,0.224 -0.5,0.5 0,0.276 0.224,0.5 0.5,0.5 H 0 C 0.276,1 0.5,0.776 0.5,0.5 0.5,0.224 0.276,0 0,0" /></g><g
           transform="translate(2.3781,19.9228)"
           id="g52"><path
             id="path54"
             style="fill:#231f20;fill-opacity:1;fill-rule:nonzero;stroke:none"
             d="m 0,0 c -0.686,0 -1.244,-0.558 -1.244,-1.244 v -13.274 c 0,-0.686 0.558,-1.243 1.244,-1.243 h 19.302 c 0.685,0 1.243,0.557 1.243,1.243 V -1.244 C 20.545,-0.558 19.987,0 19.302,0 Z M 19.302,-16.761 H 0 c -1.237,0 -2.244,1.006 -2.244,2.243 V -1.244 C -2.244,-0.006 -1.237,1 0,1 h 19.302 c 1.237,0 2.243,-1.006 2.243,-2.244 v -13.274 c 0,-1.237 -1.006,-2.243 -2.243,-2.243" /></g></g></g></g></svg>