<?xml version="1.0" encoding="UTF-8" standalone="no"?>
<svg
   xmlns:dc="http://purl.org/dc/elements/1.1/"
   xmlns:cc="http://creativecommons.org/ns#"
   xmlns:rdf="http://www.w3.org/1999/02/22-rdf-syntax-ns#"
   xmlns:svg="http://www.w3.org/2000/svg"
   xmlns="http://www.w3.org/2000/svg"
   viewBox="0 0 40.009602 40.044399"
   height="40.044399"
   width="40.009602"
   xml:space="preserve"
   id="svg2"
   version="1.1"><metadata
     id="metadata8"><rdf:RDF><cc:Work
         rdf:about=""><dc:format>image/svg+xml</dc:format><dc:type
           rdf:resource="http://purl.org/dc/dcmitype/StillImage" /></cc:Work></rdf:RDF></metadata><defs
     id="defs6"><clipPath
       id="clipPath18"
       clipPathUnits="userSpaceOnUse"><path
         id="path16"
         d="M 0,30.033 H 30.007 V 0 H 0 Z" /></clipPath></defs><g
     transform="matrix(1.3333333,0,0,-1.3333333,0,40.0444)"
     id="g10"><g
       id="g12"><g
         clip-path="url(#clipPath18)"
         id="g14"><g
           transform="translate(15.4718,3.2024)"
           id="g20"><path
             id="path22"
             style="fill:#231f20;fill-opacity:1;fill-rule:nonzero;stroke:none"
             d="m 0,0 c 2.194,0 4.388,-0.002 6.582,0 2.031,0.002 3.279,1.241 3.281,3.26 0.002,2.853 -0.009,5.705 0.004,8.557 0.006,1.236 -0.478,2.175 -1.514,2.864 -2.171,1.443 -4.324,2.912 -6.486,4.368 -1.297,0.874 -2.42,0.876 -3.713,0.006 C -4.008,17.6 -6.16,16.13 -8.331,14.688 -9.366,14 -9.861,13.066 -9.855,11.829 -9.843,8.977 -9.854,6.125 -9.851,3.272 -9.85,1.247 -8.606,0.003 -6.583,0 -4.389,-0.002 -2.194,0 0,0 m 10.532,15.276 c 0.885,-0.821 1.236,-1.961 1.241,-3.17 C 11.787,9.053 11.791,6.001 11.774,2.948 11.759,0.269 9.581,-1.902 6.895,-1.91 2.306,-1.923 -2.283,-1.922 -6.872,-1.911 c -2.709,0.008 -4.881,2.185 -4.892,4.894 -0.012,3.022 -0.017,6.044 0.003,9.066 0.011,1.707 0.716,3.093 2.134,4.064 2.29,1.569 4.58,3.139 6.905,4.655 1.826,1.19 3.703,1.154 5.527,-0.042 1.539,-1.009 3.054,-2.054 4.581,-3.082 0.134,-0.091 0.272,-0.177 0.505,-0.328 z" /></g><g
           transform="translate(15.4318,15.9305)"
           id="g24"><path
             id="path26"
             style="fill:#231f20;fill-opacity:1;fill-rule:nonzero;stroke:none"
             d="M 0,0 C 0.821,0.621 1.757,0.932 2.781,0.817 5.153,0.551 6.622,-1.79 5.929,-4.159 5.594,-5.302 4.955,-6.284 4.15,-7.135 3.314,-8.018 2.426,-8.856 1.504,-9.65 c -0.915,-0.788 -2.078,-0.766 -3.018,-0.017 -1.257,1.001 -2.466,2.07 -3.344,3.424 -0.492,0.76 -0.92,1.611 -1.148,2.481 -0.405,1.552 0.304,3.155 1.586,4.01 1.25,0.835 2.831,0.786 4.219,-0.13 C -0.144,0.081 -0.083,0.048 0,0" /></g><g
           transform="translate(2.6242,26.68)"
           id="g28"><path
             id="path30"
             style="fill:#231f20;fill-opacity:1;fill-rule:nonzero;stroke:none"
             d="M 0,0 C 0.006,0.307 0.198,0.579 0.484,0.687 L 1.783,1.179 2.303,2.48 C 2.417,2.765 2.693,2.952 3,2.952 3.307,2.952 3.583,2.765 3.697,2.48 L 4.22,1.172 5.528,0.649 C 5.813,0.535 6,0.259 6,-0.048 6,-0.355 5.813,-0.631 5.528,-0.745 L 4.22,-1.268 3.697,-2.576 C 3.583,-2.861 3.307,-3.048 3,-3.048 c -0.307,0 -0.583,0.187 -0.697,0.472 L 1.777,-1.26 0.459,-0.704 C 0.176,-0.586 -0.005,-0.307 0,0" /></g><g
           transform="translate(27.3092,24.2303)"
           id="g32"><path
             id="path34"
             style="fill:#231f20;fill-opacity:1;fill-rule:nonzero;stroke:none"
             d="m 0,0 -1.09,0.436 -0.436,1.09 c -0.095,0.237 -0.325,0.393 -0.58,0.393 -0.255,0 -0.486,-0.156 -0.58,-0.393 L -3.119,0.442 -4.201,0.032 C -4.44,-0.058 -4.6,-0.285 -4.605,-0.541 -4.61,-0.797 -4.458,-1.029 -4.223,-1.128 l 1.099,-0.463 0.439,-1.097 c 0.095,-0.237 0.325,-0.393 0.58,-0.393 0.255,0 0.486,0.156 0.58,0.393 l 0.436,1.09 1.09,0.436 c 0.237,0.095 0.393,0.325 0.393,0.58 0,0.255 -0.156,0.486 -0.393,0.58 z" /></g></g></g></g></svg>