<?xml version="1.0" encoding="UTF-8" standalone="no"?>
<svg
   xmlns:dc="http://purl.org/dc/elements/1.1/"
   xmlns:cc="http://creativecommons.org/ns#"
   xmlns:rdf="http://www.w3.org/1999/02/22-rdf-syntax-ns#"
   xmlns:svg="http://www.w3.org/2000/svg"
   xmlns="http://www.w3.org/2000/svg"
   viewBox="0 0 443.68134 76.094666"
   height="76.094666"
   width="443.68134"
   xml:space="preserve"
   id="svg2"
   version="1.1"><metadata
     id="metadata8"><rdf:RDF><cc:Work
         rdf:about=""><dc:format>image/svg+xml</dc:format><dc:type
           rdf:resource="http://purl.org/dc/dcmitype/StillImage" /></cc:Work></rdf:RDF></metadata><defs
     id="defs6"><clipPath
       id="clipPath18"
       clipPathUnits="userSpaceOnUse"><path
         id="path16"
         d="M 0,57.071 H 332.761 V 0 H 0 Z" /></clipPath></defs><g
     transform="matrix(1.3333333,0,0,-1.3333333,0,76.094667)"
     id="g10"><g
       id="g12"><g
         clip-path="url(#clipPath18)"
         id="g14"><g
           transform="translate(7.7491,46.8795)"
           id="g20"><path
             id="path22"
             style="fill:#231f20;fill-opacity:1;fill-rule:nonzero;stroke:none"
             d="m 0,0 c 0.568,-0.86 1.267,-1.612 2.096,-2.257 0.829,-0.645 1.949,-1.428 3.362,-2.349 1.535,-0.983 2.764,-1.842 3.685,-2.579 0.921,-0.737 1.704,-1.635 2.349,-2.695 0.644,-1.059 0.967,-2.28 0.967,-3.662 0,-1.596 -0.431,-3.016 -1.29,-4.26 -0.86,-1.243 -2.049,-2.21 -3.569,-2.902 -1.52,-0.69 -3.217,-1.036 -5.09,-1.036 -1.382,0 -2.825,0.193 -4.329,0.575 -1.505,0.384 -2.518,0.807 -3.04,1.267 -0.154,0.123 -0.269,0.238 -0.346,0.346 -0.077,0.107 -0.115,0.283 -0.115,0.53 l -0.138,7.323 v 0.046 c 0,0.123 0.076,0.192 0.23,0.207 0.154,0.015 0.246,-0.038 0.277,-0.161 0.921,-1.873 1.727,-3.393 2.418,-4.56 0.691,-1.167 1.566,-2.195 2.625,-3.085 1.059,-0.891 2.264,-1.336 3.616,-1.336 1.228,0 2.241,0.33 3.04,0.99 0.798,0.66 1.197,1.788 1.197,3.385 0,1.351 -0.299,2.533 -0.898,3.547 -0.599,1.013 -1.329,1.873 -2.188,2.579 -0.86,0.706 -2.042,1.55 -3.547,2.533 -1.473,0.952 -2.617,1.765 -3.431,2.442 -0.814,0.675 -1.512,1.488 -2.095,2.441 -0.584,0.951 -0.875,2.072 -0.875,3.362 0,1.627 0.467,3.001 1.404,4.122 0.936,1.121 2.142,1.95 3.616,2.487 1.474,0.537 3.024,0.806 4.652,0.806 1.074,0 2.165,-0.1 3.27,-0.299 1.105,-0.2 1.996,-0.438 2.671,-0.714 0.277,-0.123 0.461,-0.253 0.553,-0.392 0.092,-0.138 0.138,-0.315 0.138,-0.529 v -6.771 c 0,-0.092 -0.077,-0.161 -0.23,-0.207 -0.154,-0.046 -0.246,-0.023 -0.277,0.069 L 10.34,0.138 C 9.572,2.073 8.674,3.715 7.646,5.066 6.617,6.417 5.182,7.093 3.339,7.093 2.111,7.093 1.105,6.74 0.322,6.034 -0.46,5.327 -0.852,4.298 -0.852,2.948 -0.852,1.842 -0.568,0.859 0,0" /></g><g
           transform="translate(33.3346,27.466)"
           id="g24"><path
             id="path26"
             style="fill:#231f20;fill-opacity:1;fill-rule:nonzero;stroke:none"
             d="m 0,0 c 0.214,-0.445 0.622,-0.76 1.221,-0.944 0.598,-0.185 1.558,-0.277 2.878,-0.277 0.092,0 0.138,-0.091 0.138,-0.276 0,-0.185 -0.046,-0.276 -0.138,-0.276 -1.259,0 -2.242,0.014 -2.948,0.045 l -4.006,0.046 -3.363,-0.046 c -0.615,-0.031 -1.444,-0.045 -2.487,-0.045 -0.092,0 -0.138,0.091 -0.138,0.276 0,0.185 0.046,0.276 0.138,0.276 0.982,0 1.696,0.076 2.142,0.231 0.444,0.153 0.744,0.452 0.898,0.898 0.153,0.445 0.23,1.128 0.23,2.049 v 21.325 c 0,0.922 -0.077,1.596 -0.23,2.027 -0.154,0.43 -0.46,0.729 -0.921,0.898 -0.461,0.168 -1.167,0.253 -2.119,0.253 -0.092,0 -0.138,0.093 -0.138,0.277 0,0.184 0.046,0.276 0.138,0.276 l 2.441,-0.046 c 1.412,-0.062 2.534,-0.092 3.362,-0.092 0.737,0 1.612,0.046 2.626,0.138 0.399,0.03 0.905,0.061 1.52,0.092 0.613,0.03 1.319,0.046 2.118,0.046 3.132,0 5.604,-0.652 7.416,-1.957 1.811,-1.306 2.717,-3.324 2.717,-6.057 0,-1.904 -0.491,-3.516 -1.474,-4.836 C 11.038,12.98 9.771,11.982 8.222,11.307 6.67,10.631 5.082,10.294 3.455,10.294 c -0.83,0 -1.551,0.076 -2.165,0.23 -0.062,0 -0.092,0.077 -0.092,0.23 0,0.093 0.023,0.184 0.069,0.277 0.045,0.092 0.099,0.122 0.161,0.092 C 1.889,11 2.41,10.938 2.994,10.938 c 1.412,0 2.587,0.661 3.524,1.981 0.936,1.32 1.404,3.193 1.404,5.62 0,2.425 -0.514,4.298 -1.543,5.619 -1.029,1.32 -2.526,1.98 -4.49,1.98 -0.861,0 -1.444,-0.2 -1.751,-0.599 -0.307,-0.399 -0.46,-1.182 -0.46,-2.349 V 2.142 C -0.322,1.158 -0.215,0.444 0,0" /></g><g
           transform="translate(55.7652,37.5294)"
           id="g28"><path
             id="path30"
             style="fill:#231f20;fill-opacity:1;fill-rule:nonzero;stroke:none"
             d="M 0,0 H 10.041 L 4.744,10.501 Z m 23.812,-11.561 c 0,-0.184 -0.077,-0.276 -0.23,-0.276 -0.615,0 -1.566,0.03 -2.856,0.092 -1.351,0.061 -2.319,0.093 -2.901,0.093 -0.768,0 -1.704,-0.032 -2.81,-0.093 -1.044,-0.062 -1.873,-0.092 -2.487,-0.092 -0.123,0 -0.184,0.092 -0.184,0.276 0,0.185 0.061,0.277 0.184,0.277 0.798,0 1.374,0.084 1.727,0.253 0.352,0.169 0.53,0.468 0.53,0.898 0,0.522 -0.307,1.397 -0.922,2.626 l -3.132,6.217 h -11.33 l -1.796,-4.006 c -0.399,-0.891 -0.599,-1.721 -0.599,-2.488 0,-1.105 0.391,-1.965 1.175,-2.579 0.782,-0.615 1.834,-0.921 3.154,-0.921 0.154,0 0.231,-0.092 0.231,-0.277 0,-0.184 -0.077,-0.276 -0.231,-0.276 -0.552,0 -1.351,0.03 -2.395,0.092 -1.167,0.061 -2.18,0.093 -3.039,0.093 -0.829,0 -1.828,-0.032 -2.994,-0.093 -1.044,-0.062 -1.888,-0.092 -2.533,-0.092 -0.123,0 -0.185,0.092 -0.185,0.276 0,0.185 0.062,0.277 0.185,0.277 0.859,0 1.581,0.177 2.165,0.529 0.583,0.353 1.166,0.983 1.75,1.889 0.583,0.905 1.274,2.249 2.072,4.03 l 9.995,21.97 c 0.061,0.092 0.199,0.138 0.415,0.138 0.245,0 0.383,-0.046 0.414,-0.138 L 18.7,-5.527 c 1.074,-2.181 1.965,-3.684 2.671,-4.514 0.706,-0.829 1.443,-1.243 2.211,-1.243 0.153,0 0.23,-0.092 0.23,-0.277" /></g><g
           transform="translate(96.63,38.0983)"
           id="g32"><path
             id="path34"
             style="fill:#231f20;fill-opacity:1;fill-rule:nonzero;stroke:none"
             d="m 0,0 c 1.553,1.509 2.33,3.118 2.33,4.824 0,0.963 -0.225,1.718 -0.673,2.265 -0.449,0.546 -1.033,0.82 -1.756,0.82 -0.612,0 -1.049,-0.197 -1.312,-0.591 C -1.674,6.925 -1.805,6.334 -1.805,5.546 -1.805,3.84 -1.204,1.991 0,0 m 5.251,-10.338 c -0.35,0.24 -0.82,0.601 -1.411,1.083 -1.116,0.897 -2.237,1.898 -3.364,3.003 -1.127,1.105 -2.117,2.193 -2.97,3.265 -0.985,-1.029 -1.477,-2.112 -1.477,-3.249 0,-0.853 0.246,-1.657 0.739,-2.412 0.492,-0.755 1.197,-1.368 2.116,-1.838 0.919,-0.471 1.991,-0.706 3.217,-0.706 1.268,0 2.318,0.284 3.15,0.854 m 9.239,-1.887 c -0.011,-0.121 -0.05,-0.181 -0.115,-0.181 H 8.992 c -0.612,0 -1.662,0.536 -3.15,1.608 -1.641,-1.334 -3.731,-2.001 -6.269,-2.001 -1.509,0 -2.779,0.218 -3.806,0.656 -1.029,0.437 -1.795,1.018 -2.298,1.739 -0.504,0.722 -0.755,1.488 -0.755,2.298 0,1.05 0.361,1.99 1.083,2.822 0.723,0.831 1.816,1.794 3.282,2.888 -0.35,0.459 -0.689,0.984 -1.017,1.575 -0.307,0.613 -0.541,1.193 -0.706,1.74 -0.164,0.546 -0.246,1.148 -0.246,1.805 0,1.772 0.563,3.227 1.69,4.365 1.127,1.137 2.664,1.706 4.611,1.706 1.357,0 2.429,-0.29 3.216,-0.869 C 5.415,7.346 5.809,6.542 5.809,5.513 5.809,4.66 5.563,3.877 5.071,3.167 4.578,2.456 4.015,1.859 3.38,1.378 2.746,0.896 1.761,0.208 0.427,-0.689 c 1.575,-2.342 3.774,-4.639 6.596,-6.893 0.197,0.766 0.296,1.63 0.296,2.593 0,1.269 -0.209,2.194 -0.624,2.774 -0.416,0.579 -1.094,0.869 -2.035,0.869 -0.044,0 -0.071,0.066 -0.082,0.197 -0.011,0.131 0.017,0.197 0.082,0.197 l 7.811,0.033 c 0.066,0 0.099,-0.066 0.099,-0.197 0,-0.132 -0.033,-0.197 -0.099,-0.197 -0.656,0 -1.143,-0.071 -1.46,-0.213 C 10.693,-1.669 10.453,-1.904 10.289,-2.232 10.125,-2.56 9.944,-3.085 9.747,-3.807 9.506,-4.683 9.255,-5.481 8.992,-6.203 8.73,-6.925 8.391,-7.625 7.975,-8.303 c 1.422,-1.073 2.686,-1.915 3.791,-2.528 1.104,-0.612 1.974,-1.006 2.609,-1.181 0.087,-0.022 0.125,-0.093 0.115,-0.213" /></g><g
           transform="translate(128.8902,27.466)"
           id="g36"><path
             id="path38"
             style="fill:#231f20;fill-opacity:1;fill-rule:nonzero;stroke:none"
             d="m 0,0 c 0.214,-0.445 0.622,-0.76 1.221,-0.944 0.598,-0.185 1.558,-0.277 2.878,-0.277 0.092,0 0.138,-0.091 0.138,-0.276 0,-0.185 -0.046,-0.276 -0.138,-0.276 -1.259,0 -2.242,0.014 -2.948,0.045 l -4.006,0.046 -3.363,-0.046 c -0.615,-0.031 -1.444,-0.045 -2.487,-0.045 -0.092,0 -0.138,0.091 -0.138,0.276 0,0.185 0.046,0.276 0.138,0.276 0.982,0 1.696,0.076 2.142,0.231 0.444,0.153 0.744,0.452 0.898,0.898 0.153,0.445 0.23,1.128 0.23,2.049 v 21.325 c 0,0.922 -0.077,1.596 -0.23,2.027 -0.154,0.43 -0.46,0.729 -0.921,0.898 -0.461,0.168 -1.167,0.253 -2.119,0.253 -0.092,0 -0.138,0.093 -0.138,0.277 0,0.184 0.046,0.276 0.138,0.276 l 2.441,-0.046 c 1.412,-0.062 2.534,-0.092 3.362,-0.092 0.737,0 1.612,0.046 2.626,0.138 0.399,0.03 0.905,0.061 1.52,0.092 0.613,0.03 1.319,0.046 2.118,0.046 3.132,0 5.604,-0.652 7.416,-1.957 1.811,-1.306 2.717,-3.324 2.717,-6.057 0,-1.904 -0.491,-3.516 -1.474,-4.836 C 11.038,12.98 9.771,11.982 8.222,11.307 6.67,10.631 5.082,10.294 3.455,10.294 c -0.83,0 -1.551,0.076 -2.165,0.23 -0.062,0 -0.092,0.077 -0.092,0.23 0,0.093 0.023,0.184 0.069,0.277 0.045,0.092 0.099,0.122 0.161,0.092 C 1.889,11 2.41,10.938 2.994,10.938 c 1.412,0 2.587,0.661 3.524,1.981 0.936,1.32 1.404,3.193 1.404,5.62 0,2.425 -0.514,4.298 -1.543,5.619 -1.029,1.32 -2.526,1.98 -4.49,1.98 -0.861,0 -1.444,-0.2 -1.751,-0.599 -0.307,-0.399 -0.46,-1.182 -0.46,-2.349 V 2.142 C -0.322,1.158 -0.215,0.444 0,0" /></g><g
           transform="translate(157.5846,40.7077)"
           id="g40"><path
             id="path42"
             style="fill:#231f20;fill-opacity:1;fill-rule:nonzero;stroke:none"
             d="m 0,0 c 1.781,0 3.063,0.499 3.846,1.497 0.783,0.997 1.175,2.602 1.175,4.813 0,2.518 -0.369,4.253 -1.106,5.205 -0.737,0.951 -1.796,1.427 -3.178,1.427 -1.228,0 -2.104,-0.23 -2.625,-0.691 -0.523,-0.46 -0.783,-1.228 -0.783,-2.302 V 0.184 C -1.934,0.061 -1.044,0 0,0 m 19.667,-14.739 c 0,-0.184 -0.031,-0.276 -0.092,-0.276 h -8.199 c -0.675,0 -1.934,1.221 -3.776,3.661 -1.843,2.442 -4.069,5.857 -6.679,10.249 -0.246,-0.031 -0.599,-0.046 -1.059,-0.046 -1.197,0 -2.043,0.015 -2.533,0.046 v -10.18 c 0,-0.951 0.076,-1.642 0.23,-2.072 0.153,-0.431 0.453,-0.722 0.898,-0.875 0.445,-0.154 1.159,-0.23 2.142,-0.23 0.061,0 0.092,-0.092 0.092,-0.277 0,-0.184 -0.031,-0.276 -0.092,-0.276 -1.014,0 -1.812,0.015 -2.395,0.046 l -3.5,0.046 -3.363,-0.046 c -0.614,-0.031 -1.444,-0.046 -2.487,-0.046 -0.092,0 -0.138,0.092 -0.138,0.276 0,0.185 0.046,0.277 0.138,0.277 0.982,0 1.696,0.076 2.142,0.23 0.444,0.153 0.752,0.452 0.921,0.898 0.168,0.445 0.253,1.128 0.253,2.049 v 21.326 c 0,0.921 -0.077,1.596 -0.23,2.026 -0.154,0.43 -0.461,0.729 -0.921,0.898 -0.461,0.169 -1.167,0.254 -2.119,0.254 -0.062,0 -0.092,0.092 -0.092,0.276 0,0.184 0.03,0.276 0.092,0.276 l 2.441,-0.045 c 1.412,-0.062 2.534,-0.093 3.363,-0.093 1.043,0 2.133,0.046 3.27,0.138 0.398,0.031 0.898,0.062 1.497,0.092 0.598,0.031 1.266,0.047 2.003,0.047 2.794,0 4.959,-0.515 6.494,-1.543 C 9.503,11.337 10.271,9.902 10.271,8.06 10.271,6.371 9.811,4.843 8.89,3.478 7.968,2.111 6.74,1.013 5.205,0.184 7.661,-3.5 9.718,-6.387 11.376,-8.475 c 1.659,-2.088 3.132,-3.608 4.422,-4.56 1.289,-0.952 2.548,-1.427 3.777,-1.427 0.061,0 0.092,-0.092 0.092,-0.277" /></g><g
           transform="translate(200.1886,33.108)"
           id="g44"><path
             id="path46"
             style="fill:#231f20;fill-opacity:1;fill-rule:nonzero;stroke:none"
             d="M 0,0 C 0.093,0 0.177,-0.023 0.254,-0.069 0.33,-0.115 0.369,-0.154 0.369,-0.184 0.062,-2.58 -0.092,-4.76 -0.092,-6.725 c 0,-0.246 -0.046,-0.422 -0.137,-0.529 -0.093,-0.109 -0.277,-0.162 -0.553,-0.162 h -20.359 c -0.091,0 -0.137,0.092 -0.137,0.277 0,0.184 0.046,0.276 0.137,0.276 0.983,0 1.697,0.076 2.142,0.231 0.445,0.153 0.744,0.452 0.898,0.898 0.154,0.444 0.231,1.128 0.231,2.049 V 17.64 c 0,0.922 -0.077,1.596 -0.231,2.027 -0.154,0.43 -0.461,0.729 -0.92,0.898 -0.461,0.168 -1.168,0.253 -2.12,0.253 -0.091,0 -0.137,0.093 -0.137,0.277 0,0.184 0.046,0.276 0.137,0.276 h 19.53 c 0.306,0 0.46,-0.138 0.46,-0.414 l 0.092,-6.126 c 0,-0.062 -0.085,-0.108 -0.253,-0.139 -0.169,-0.03 -0.269,0 -0.299,0.093 -0.493,1.78 -1.322,3.101 -2.488,3.961 -1.167,0.859 -2.702,1.289 -4.605,1.289 h -1.382 c -0.922,0 -1.598,-0.2 -2.027,-0.598 -0.43,-0.4 -0.645,-1.014 -0.645,-1.843 V 8.198 h 3.823 c 1.781,0 3.147,0.307 4.099,0.922 0.952,0.613 1.428,1.473 1.428,2.579 0,0.092 0.085,0.138 0.254,0.138 0.168,0 0.253,-0.046 0.253,-0.138 L -2.947,7.554 -2.901,5.343 C -2.84,4.298 -2.81,3.469 -2.81,2.855 c 0,-0.062 -0.091,-0.092 -0.275,-0.092 -0.185,0 -0.277,0.03 -0.277,0.092 0,1.259 -0.484,2.249 -1.45,2.971 -0.968,0.721 -2.358,1.083 -4.169,1.083 h -3.777 V -3.5 c 0,-0.892 0.168,-1.552 0.507,-1.981 0.338,-0.431 0.875,-0.645 1.612,-0.645 h 1.52 c 2.395,0 4.313,0.491 5.757,1.474 1.443,0.982 2.503,2.502 3.178,4.56 C -0.184,-0.031 -0.123,0 0,0" /></g><g
           transform="translate(211.9112,46.8795)"
           id="g48"><path
             id="path50"
             style="fill:#231f20;fill-opacity:1;fill-rule:nonzero;stroke:none"
             d="m 0,0 c 0.567,-0.86 1.267,-1.612 2.096,-2.257 0.829,-0.645 1.949,-1.428 3.362,-2.349 1.535,-0.983 2.764,-1.842 3.685,-2.579 0.92,-0.737 1.704,-1.635 2.348,-2.695 0.645,-1.059 0.968,-2.28 0.968,-3.662 0,-1.596 -0.431,-3.016 -1.29,-4.26 -0.86,-1.243 -2.05,-2.21 -3.569,-2.902 -1.521,-0.69 -3.217,-1.036 -5.09,-1.036 -1.382,0 -2.825,0.193 -4.329,0.575 -1.505,0.384 -2.519,0.807 -3.04,1.267 -0.155,0.123 -0.27,0.238 -0.346,0.346 -0.077,0.107 -0.115,0.283 -0.115,0.53 l -0.138,7.323 v 0.046 c 0,0.123 0.076,0.192 0.23,0.207 0.154,0.015 0.246,-0.038 0.277,-0.161 0.921,-1.873 1.726,-3.393 2.418,-4.56 0.69,-1.167 1.565,-2.195 2.625,-3.085 1.059,-0.891 2.264,-1.336 3.615,-1.336 1.229,0 2.241,0.33 3.04,0.99 0.799,0.66 1.198,1.788 1.198,3.385 0,1.351 -0.299,2.533 -0.898,3.547 -0.599,1.013 -1.329,1.873 -2.188,2.579 -0.86,0.706 -2.043,1.55 -3.547,2.533 -1.473,0.952 -2.618,1.765 -3.431,2.442 -0.814,0.675 -1.513,1.488 -2.096,2.441 -0.583,0.951 -0.875,2.072 -0.875,3.362 0,1.627 0.468,3.001 1.405,4.122 0.936,1.121 2.142,1.95 3.616,2.487 1.473,0.537 3.024,0.806 4.652,0.806 1.074,0 2.164,-0.1 3.27,-0.299 1.105,-0.2 1.996,-0.438 2.671,-0.714 0.277,-0.123 0.46,-0.253 0.553,-0.392 0.092,-0.138 0.138,-0.315 0.138,-0.529 v -6.771 c 0,-0.092 -0.077,-0.161 -0.231,-0.207 -0.153,-0.046 -0.246,-0.023 -0.276,0.069 L 10.34,0.138 C 9.572,2.073 8.674,3.715 7.646,5.066 6.616,6.417 5.182,7.093 3.339,7.093 2.11,7.093 1.105,6.74 0.322,6.034 -0.461,5.327 -0.853,4.298 -0.853,2.948 -0.853,1.842 -0.568,0.859 0,0" /></g><g
           transform="translate(229.5743,46.2809)"
           id="g52"><path
             id="path54"
             style="fill:#231f20;fill-opacity:1;fill-rule:nonzero;stroke:none"
             d="m 0,0 c -0.031,-0.092 -0.123,-0.131 -0.276,-0.115 -0.155,0.015 -0.231,0.069 -0.231,0.161 0.122,1.227 0.261,2.817 0.415,4.767 0.154,1.95 0.23,3.416 0.23,4.398 0,0.154 0.085,0.231 0.254,0.231 0.168,0 0.253,-0.077 0.253,-0.231 C 0.645,8.536 1.52,8.198 3.271,8.198 5.91,8.106 8.996,8.06 12.528,8.06 c 1.811,0 3.731,0.03 5.757,0.092 l 3.132,0.046 c 1.167,0 2.019,0.076 2.557,0.231 0.537,0.153 0.881,0.46 1.036,0.921 0.03,0.122 0.13,0.184 0.3,0.184 0.168,0 0.252,-0.062 0.252,-0.184 C 25.471,8.429 25.37,6.955 25.263,4.928 25.155,2.901 25.102,1.273 25.102,0.046 c 0,-0.092 -0.078,-0.138 -0.23,-0.138 -0.154,0 -0.247,0.046 -0.276,0.138 -0.461,2.364 -1.322,4.137 -2.58,5.32 -1.259,1.181 -2.81,1.773 -4.652,1.773 -0.891,0 -1.482,-0.192 -1.773,-0.576 C 15.299,6.179 15.153,5.45 15.153,4.375 v -21.233 c 0,-0.952 0.092,-1.642 0.277,-2.072 0.184,-0.431 0.537,-0.722 1.059,-0.875 0.522,-0.154 1.351,-0.231 2.488,-0.231 0.091,0 0.137,-0.091 0.137,-0.276 0,-0.185 -0.046,-0.276 -0.137,-0.276 -1.107,0 -1.981,0.014 -2.626,0.046 l -3.823,0.045 -3.731,-0.045 c -0.645,-0.032 -1.535,-0.046 -2.671,-0.046 -0.093,0 -0.139,0.091 -0.139,0.276 0,0.185 0.046,0.276 0.139,0.276 1.105,0 1.927,0.077 2.464,0.231 0.537,0.153 0.905,0.452 1.105,0.898 0.2,0.445 0.3,1.128 0.3,2.049 V 4.467 C 9.995,5.511 9.856,6.218 9.58,6.586 9.304,6.955 8.735,7.139 7.876,7.139 4.222,7.139 1.596,4.759 0,0" /></g><g
           transform="translate(267.9874,27.3507)"
           id="g56"><path
             id="path58"
             style="fill:#231f20;fill-opacity:1;fill-rule:nonzero;stroke:none"
             d="m 0,0 c 0.153,-0.431 0.452,-0.722 0.898,-0.875 0.445,-0.154 1.159,-0.23 2.142,-0.23 0.092,0 0.138,-0.092 0.138,-0.277 0,-0.184 -0.046,-0.276 -0.138,-0.276 -1.014,0 -1.812,0.014 -2.395,0.046 l -3.5,0.046 -3.409,-0.046 c -0.615,-0.032 -1.444,-0.046 -2.487,-0.046 -0.062,0 -0.093,0.092 -0.093,0.276 0,0.185 0.031,0.277 0.093,0.277 0.981,0 1.704,0.076 2.164,0.23 0.461,0.153 0.775,0.452 0.944,0.898 0.169,0.445 0.254,1.128 0.254,2.049 v 21.325 c 0,0.922 -0.085,1.597 -0.254,2.027 -0.169,0.43 -0.483,0.729 -0.944,0.898 -0.46,0.169 -1.183,0.254 -2.164,0.254 -0.062,0 -0.093,0.092 -0.093,0.276 0,0.184 0.031,0.276 0.093,0.276 l 2.487,-0.045 c 1.411,-0.062 2.548,-0.093 3.409,-0.093 0.951,0 2.133,0.031 3.545,0.093 l 2.35,0.045 c 0.092,0 0.138,-0.092 0.138,-0.276 0,-0.184 -0.046,-0.276 -0.138,-0.276 -0.952,0 -1.658,-0.093 -2.119,-0.277 C 0.46,26.115 0.153,25.8 0,25.355 -0.154,24.91 -0.23,24.227 -0.23,23.306 V 2.072 C -0.23,1.121 -0.154,0.43 0,0" /></g><g
           transform="translate(283.7852,27.0968)"
           id="g60"><path
             id="path62"
             style="fill:#231f20;fill-opacity:1;fill-rule:nonzero;stroke:none"
             d="m 0,0 c -2.579,1.305 -4.56,3.079 -5.941,5.32 -1.382,2.242 -2.074,4.728 -2.074,7.462 0,2.917 0.776,5.527 2.327,7.83 1.55,2.303 3.692,4.091 6.425,5.366 2.733,1.273 5.803,1.911 9.211,1.911 1.475,0 2.948,-0.115 4.422,-0.346 1.474,-0.23 2.655,-0.529 3.547,-0.897 0.337,-0.124 0.529,-0.224 0.575,-0.3 0.046,-0.077 0.085,-0.33 0.115,-0.76 l 0.599,-6.402 c 0,-0.092 -0.085,-0.154 -0.253,-0.184 -0.169,-0.031 -0.269,0.015 -0.3,0.138 -0.399,1.013 -1.044,2.118 -1.934,3.316 -0.891,1.197 -2.057,2.241 -3.5,3.132 -1.444,0.89 -3.117,1.336 -5.021,1.336 -1.965,0 -3.761,-0.538 -5.388,-1.612 -1.628,-1.076 -2.91,-2.611 -3.846,-4.606 -0.938,-1.996 -1.405,-4.314 -1.405,-6.955 0,-2.887 0.545,-5.466 1.635,-7.738 1.089,-2.273 2.602,-4.038 4.536,-5.297 1.935,-1.259 4.115,-1.888 6.541,-1.888 1.258,0 2.226,0.138 2.902,0.414 0.675,0.277 1.166,0.814 1.473,1.613 0.307,0.797 0.461,1.98 0.461,3.546 0,1.596 -0.092,2.709 -0.276,3.339 -0.185,0.629 -0.576,1.052 -1.175,1.267 -0.598,0.214 -1.651,0.322 -3.155,0.322 -0.184,0 -0.276,0.123 -0.276,0.369 0,0.092 0.023,0.176 0.069,0.253 0.046,0.076 0.1,0.115 0.161,0.115 2.609,-0.154 4.729,-0.23 6.357,-0.23 1.565,0 3.193,0.046 4.881,0.138 0.123,0 0.192,-0.108 0.208,-0.322 C 21.916,9.435 21.847,9.327 21.693,9.327 21.141,9.357 20.749,9.258 20.52,9.028 20.289,8.798 20.143,8.329 20.081,7.623 20.02,6.917 19.989,5.689 19.989,3.938 c 0,-1.381 0.054,-2.364 0.161,-2.947 0.108,-0.584 0.162,-0.952 0.162,-1.106 0,-0.184 -0.031,-0.307 -0.092,-0.368 -0.062,-0.062 -0.2,-0.123 -0.414,-0.184 C 15.844,-1.526 12.282,-1.957 9.12,-1.957 5.619,-1.957 2.579,-1.305 0,0" /></g><g
           transform="translate(330.6729,33.108)"
           id="g64"><path
             id="path66"
             style="fill:#231f20;fill-opacity:1;fill-rule:nonzero;stroke:none"
             d="m 0,0 c 0.092,0 0.176,-0.023 0.253,-0.069 0.076,-0.046 0.115,-0.085 0.115,-0.115 -0.306,-2.396 -0.46,-4.576 -0.46,-6.541 0,-0.246 -0.047,-0.422 -0.138,-0.529 -0.092,-0.109 -0.277,-0.162 -0.553,-0.162 h -20.358 c -0.092,0 -0.138,0.092 -0.138,0.277 0,0.184 0.046,0.276 0.138,0.276 0.982,0 1.697,0.076 2.142,0.231 0.444,0.153 0.744,0.452 0.897,0.898 0.154,0.444 0.231,1.128 0.231,2.049 V 17.64 c 0,0.922 -0.077,1.596 -0.231,2.027 -0.153,0.43 -0.46,0.729 -0.92,0.898 -0.46,0.168 -1.167,0.253 -2.119,0.253 -0.092,0 -0.138,0.093 -0.138,0.277 0,0.184 0.046,0.276 0.138,0.276 h 19.529 c 0.306,0 0.461,-0.138 0.461,-0.414 l 0.091,-6.126 c 0,-0.062 -0.085,-0.108 -0.252,-0.139 -0.169,-0.03 -0.27,0 -0.3,0.093 -0.492,1.78 -1.321,3.101 -2.488,3.961 -1.167,0.859 -2.702,1.289 -4.605,1.289 h -1.382 c -0.921,0 -1.597,-0.2 -2.026,-0.598 -0.431,-0.4 -0.646,-1.014 -0.646,-1.843 V 8.198 h 3.823 c 1.781,0 3.148,0.307 4.1,0.922 0.951,0.613 1.428,1.473 1.428,2.579 0,0.092 0.084,0.138 0.253,0.138 0.169,0 0.254,-0.046 0.254,-0.138 L -2.948,7.554 -2.901,5.343 c 0.06,-1.045 0.091,-1.874 0.091,-2.488 0,-0.062 -0.091,-0.092 -0.276,-0.092 -0.185,0 -0.276,0.03 -0.276,0.092 0,1.259 -0.484,2.249 -1.451,2.971 -0.967,0.721 -2.357,1.083 -4.168,1.083 h -3.778 V -3.5 c 0,-0.892 0.169,-1.552 0.507,-1.981 0.338,-0.431 0.875,-0.645 1.612,-0.645 h 1.52 c 2.395,0 4.314,0.491 5.758,1.474 1.443,0.982 2.502,2.502 3.177,4.56 C -0.185,-0.031 -0.123,0 0,0" /></g><g
           transform="translate(99.3976,8.2609)"
           id="g68"><path
             id="path70"
             style="fill:#231f20;fill-opacity:1;fill-rule:nonzero;stroke:none"
             d="m 0,0 c 0,4.194 3.202,7.254 7.518,7.254 2.188,0 4.092,-0.75 5.389,-2.209 L 11.59,3.769 C 10.496,4.924 9.159,5.45 7.599,5.45 4.397,5.45 2.026,3.141 2.026,0 c 0,-3.141 2.371,-5.451 5.573,-5.451 1.56,0 2.897,0.547 3.991,1.702 l 1.317,-1.276 C 11.61,-6.484 9.706,-7.254 7.497,-7.254 3.202,-7.254 0,-4.194 0,0" /></g><g
           transform="translate(126.7935,8.2609)"
           id="g72"><path
             id="path74"
             style="fill:#231f20;fill-opacity:1;fill-rule:nonzero;stroke:none"
             d="m 0,0 c 0,3.141 -2.35,5.45 -5.491,5.45 -3.181,0 -5.532,-2.309 -5.532,-5.45 0,-3.141 2.351,-5.451 5.532,-5.451 C -2.35,-5.451 0,-3.141 0,0 m -13.049,0 c 0,4.153 3.201,7.254 7.558,7.254 4.316,0 7.517,-3.08 7.517,-7.254 0,-4.175 -3.201,-7.254 -7.517,-7.254 -4.357,0 -7.558,3.1 -7.558,7.254" /></g><g
           transform="translate(131.9215,15.3527)"
           id="g76"><path
             id="path78"
             style="fill:#231f20;fill-opacity:1;fill-rule:nonzero;stroke:none"
             d="m 0,0 h 2.026 v -12.421 h 7.68 v -1.764 H 0 Z" /></g><g
           transform="translate(143.9581,15.3527)"
           id="g80"><path
             id="path82"
             style="fill:#231f20;fill-opacity:1;fill-rule:nonzero;stroke:none"
             d="m 0,0 h 2.026 v -12.421 h 7.68 v -1.764 H 0 Z" /></g><g
           transform="translate(166.2887,2.9318)"
           id="g84"><path
             id="path86"
             style="fill:#231f20;fill-opacity:1;fill-rule:nonzero;stroke:none"
             d="M 0,0 V -1.764 H -10.293 V 12.421 H -0.284 V 10.658 H -8.267 V 6.302 h 7.112 V 4.579 H -8.267 V 0 Z" /></g><g
           transform="translate(168.3565,8.2609)"
           id="g88"><path
             id="path90"
             style="fill:#231f20;fill-opacity:1;fill-rule:nonzero;stroke:none"
             d="m 0,0 c 0,4.194 3.201,7.254 7.518,7.254 2.188,0 4.092,-0.75 5.389,-2.209 L 11.59,3.769 C 10.496,4.924 9.158,5.45 7.599,5.45 4.396,5.45 2.026,3.141 2.026,0 c 0,-3.141 2.37,-5.451 5.573,-5.451 1.559,0 2.897,0.547 3.991,1.702 l 1.317,-1.276 C 11.61,-6.484 9.706,-7.254 7.497,-7.254 3.201,-7.254 0,-4.194 0,0" /></g><g
           transform="translate(186.8165,13.59)"
           id="g92"><path
             id="path94"
             style="fill:#231f20;fill-opacity:1;fill-rule:nonzero;stroke:none"
             d="M 0,0 H -4.862 V 1.763 H 6.869 V 0 H 2.007 V -12.422 H 0 Z" /></g><path
           id="path96"
           style="fill:#231f20;fill-opacity:1;fill-rule:nonzero;stroke:none"
           d="m 195.896,15.353 h 2.026 V 1.168 h -2.026 z" /><g
           transform="translate(214.0714,8.2609)"
           id="g98"><path
             id="path100"
             style="fill:#231f20;fill-opacity:1;fill-rule:nonzero;stroke:none"
             d="m 0,0 c 0,3.141 -2.351,5.45 -5.491,5.45 -3.182,0 -5.532,-2.309 -5.532,-5.45 0,-3.141 2.35,-5.451 5.532,-5.451 C -2.351,-5.451 0,-3.141 0,0 m -13.049,0 c 0,4.153 3.201,7.254 7.558,7.254 4.315,0 7.517,-3.08 7.517,-7.254 0,-4.175 -3.202,-7.254 -7.517,-7.254 -4.357,0 -7.558,3.1 -7.558,7.254" /></g><g
           transform="translate(231.3966,15.3527)"
           id="g102"><path
             id="path104"
             style="fill:#231f20;fill-opacity:1;fill-rule:nonzero;stroke:none"
             d="m 0,0 v -14.185 h -1.661 l -8.511,10.579 v -10.579 h -2.025 V 0 h 1.661 l 8.511,-10.577 0,10.577 z" /></g></g></g></g></svg>