<?xml version="1.0" encoding="UTF-8" standalone="no"?>
<svg
   xmlns:dc="http://purl.org/dc/elements/1.1/"
   xmlns:cc="http://creativecommons.org/ns#"
   xmlns:rdf="http://www.w3.org/1999/02/22-rdf-syntax-ns#"
   xmlns:svg="http://www.w3.org/2000/svg"
   xmlns="http://www.w3.org/2000/svg"
   viewBox="0 0 133.33333 133.33333"
   height="133.33333"
   width="133.33333"
   xml:space="preserve"
   id="svg2"
   version="1.1"><metadata
     id="metadata8"><rdf:RDF><cc:Work
         rdf:about=""><dc:format>image/svg+xml</dc:format><dc:type
           rdf:resource="http://purl.org/dc/dcmitype/StillImage" /></cc:Work></rdf:RDF></metadata><defs
     id="defs6"><clipPath
       id="clipPath18"
       clipPathUnits="userSpaceOnUse"><path
         id="path16"
         d="M 0,100 H 100 V 0 H 0 Z" /></clipPath></defs><g
     transform="matrix(1.3333333,0,0,-1.3333333,0,133.33333)"
     id="g10"><g
       id="g12"><g
         clip-path="url(#clipPath18)"
         id="g14"><g
           transform="translate(72.9004,33.3002)"
           id="g20"><path
             id="path22"
             style="fill:#282828;fill-opacity:1;fill-rule:nonzero;stroke:none"
             d="M 0,0 C 0,0.1 0.1,0.2 0.1,0.5 L 0.399,3.899 C 0.399,4 0.3,4 0.199,4 0.1,4 0,4 0,3.899 -1,0.399 -3.301,-1.4 -6.801,-1.4 c -1.699,0 -3.3,0.5 -4.699,1.4 -1.5,0.899 -2.601,2.2 -3.5,3.8 -0.9,1.599 -1.301,3.3 -1.301,5.099 0,1.201 0.2,2.101 0.401,2.701 1.4,0.2 2.799,0.5 4.099,1 2.101,0.7 3.801,1.9 5.101,3.4 0.7,0.8 1.099,1.6 1.5,2.5 1.099,-0.2 2.099,-0.6 2.899,-1.2 1.101,-0.9 1.901,-2.2 2.401,-4 0,-0.1 0.099,-0.1 0.2,-0.1 0.099,0 0.2,0 0.2,0.1 L 0.1,17 c 0,0.3 0,0.4 -0.1,0.5 0,0.1 -0.101,0.1 -0.2,0.2 -1,0.5 -2,0.9 -2.901,1.1 -0.5,0.1 -1.2,0.2 -1.899,0.3 0.199,0.8 0.399,1.7 0.399,2.7 0,2.8 -1.099,4.9 -3.399,6.3 -2.2,1.4 -5.2,2.1 -8.7,2.1 -0.3,0 -2,-0.1 -5.2,-0.2 -1.3,-0.1 -2.4,-0.2 -3.4,-0.2 -1,0 -2.301,0 -4,0.1 l -3,0.1 c -0.1,0 -0.1,-0.1 -0.1,-0.3 0,-0.2 0,-0.3 0.1,-0.3 1.6,0 2.8,-0.1 3.5,-0.3 0.8,-0.2 1.3,-0.5 1.5,-1 0.3,-0.5 0.4,-1.2 0.4,-2.2 v -6.1 c -0.701,0.8 -1.5,1.4 -2.4,2 -1.2,0.7 -2.801,1.6 -4.9,2.6 -2,1 -3.6,1.8 -4.7,2.5 -1.1,0.7 -2.1,1.5 -2.8,2.5 -0.7,0.9 -1.1,1.9 -1.1,3.1 V 33 c 0,1.3 0.3,2.4 1,3.5 0.199,0.3 0.4,0.6 0.699,0.8 1.101,1.2 2.901,1.8 5.401,1.8 2.5,0 4.4,-0.6 5.8,-1.8 l 0.299,-0.3 c 1.401,-1.4 2.201,-3 2.401,-4.7 0,-0.1 0.2,-0.2 0.4,-0.2 h 0.1 c 0.2,0 0.3,0.1 0.3,0.2 l -0.5,5.4 c 0,0.4 -0.3,0.7 -0.9,0.9 -2.4,0.8 -4.7,1.2 -7,1.2 -1.9,0 -3.7,-0.3 -5.4,-0.9 -1.7,-0.6 -3,-1.5 -4.1,-2.7 -1,-1.2 -1.6,-2.6 -1.6,-4.3 v -0.4 c 0.1,-1.3 0.5,-2.5 1.2,-3.4 0.8,-1.1 1.7,-2 2.9,-2.7 1.1,-0.7 2.699,-1.5 4.6,-2.5 2,-1 3.599,-1.8 4.7,-2.6 1.2,-0.7 2.1,-1.6 3,-2.7 0.8,-1.1 1.2,-2.4 1.2,-3.9 0,-0.5 0,-1 -0.1,-1.4 -0.3,-1.401 -1,-2.5 -2.1,-3.2 -1.5,-1 -3.3,-1.5 -5.5,-1.5 -3.101,0 -5.5,0.9 -7.2,2.6 -1.8,1.699 -2.8,3.8 -3.2,6.1 0,0.1 -0.201,0.2 -0.4,0.2 -0.2,0 -0.301,-0.1 -0.301,-0.2 v -0.1 l 0.201,-1.5 0.7,-5.1 c 0,-0.3 0.099,-0.5 0.2,-0.6 0.1,-0.101 0.2,-0.3 0.399,-0.4 1.201,-0.5 2.401,-0.9 3.5,-1.201 C -41.8,7.3 -41.601,7.3 -41.3,7.2 c 1.3,-0.301 2.6,-0.4 4.1,-0.4 2.7,0 5,0.4 6.8,1.099 0.4,0.201 0.9,0.401 1.2,0.601 1,0.6 1.9,1.2 2.5,2 0.2,0.2 0.3,0.399 0.4,0.5 0.699,0.899 1.1,1.899 1.3,2.899 V 13.5 c 0,-1.601 -0.5,-3 -1.4,-4.4 C -26.5,9 -26.601,8.8 -26.7,8.7 V 2.399 c 0,-1 -0.1,-1.799 -0.401,-2.299 -0.299,-0.5 -0.799,-0.8 -1.5,-1 -0.799,-0.201 -1.899,-0.3 -3.5,-0.3 -0.099,0 -0.099,-0.1 -0.099,-0.3 0,-0.2 0,-0.3 0.099,-0.3 1.301,0 2.301,0 3.101,0.1 l 4,0.099 5.3,-0.099 c 0.899,0 2.2,-0.1 3.899,-0.1 0.101,0 0.2,0.1 0.2,0.3 0,0.2 -0.099,0.3 -0.2,0.3 -2.3,0 -3.899,0.099 -5,0.3 -1,0.2 -1.699,0.6 -2.099,1 -0.4,0.5 -0.5,1.299 -0.5,2.4 v 23.3 c 0,1.2 0.2,2.1 0.5,2.6 0.299,0.5 0.799,0.8 1.5,0.9 0.7,0.1 1.9,0.2 3.5,0.2 1.799,0 3.4,-0.3 4.9,-1 1.5,-0.7 2.699,-1.7 3.5,-3 0.899,-1.3 1.3,-2.9 1.3,-4.7 0,-2.8 -1,-4.9 -3,-6.401 -2,-1.5 -4.5,-2.199 -7.401,-2.199 -0.799,0 -1.5,0.1 -2.2,0.199 -0.099,0 -0.199,0 -0.199,-0.099 -0.101,-0.1 -0.101,-0.2 -0.101,-0.3 0,-0.2 0.101,-0.3 0.201,-0.3 0.799,-0.2 1.799,-0.301 3,-0.301 h 0.4 c -0.301,-0.5 -0.601,-1.399 -0.601,-2.599 0,-2.1 0.5,-4 1.5,-5.6 1,-1.6 2.401,-2.9 4.101,-3.801 1.8,-0.899 3.8,-1.299 6,-1.299 1.399,0 2.5,0.1 3.5,0.299 C -2,-1.4 -1,-1 0.1,-0.4 -0.101,-0.2 0,-0.101 0,0" /></g><g
           transform="translate(49.7002,18.8002)"
           id="g24"><path
             id="path26"
             style="fill:#282828;fill-opacity:1;fill-rule:nonzero;stroke:none"
             d="m 0,0 c -4.3,0 -8.5,0.8 -12.5,2.5 -3.8,1.6 -7.2,3.899 -10.2,6.899 -2.9,2.901 -5.3,6.401 -6.9,10.201 -1.7,4 -2.5,8.1 -2.5,12.5 0,4.3 0.8,8.5 2.5,12.5 1.6,3.8 3.9,7.2 6.9,10.2 2.9,2.9 6.4,5.3 10.2,6.9 4,1.7 8.1,2.5 12.5,2.5 4.3,0 8.5,-0.8 12.5,-2.5 3.8,-1.6 7.2,-3.9 10.2,-6.9 2.9,-2.9 5.3,-6.4 6.9,-10.2 1.7,-4 2.5,-8.1 2.5,-12.5 0,-4.3 -0.8,-8.5 -2.5,-12.5 C 28,15.8 25.7,12.399 22.7,9.399 19.8,6.5 16.3,4.1 12.5,2.5 8.6,0.8 4.399,0 0,0 m 23.1,9 c 3,3 5.299,6.5 7,10.399 1.7,4 2.6,8.301 2.6,12.701 0,4.4 -0.9,8.7 -2.6,12.7 -1.6,3.9 -4,7.4 -7,10.4 -3,3 -6.5,5.3 -10.4,7 -4,1.7 -8.301,2.6 -12.7,2.6 -4.4,0 -8.7,-0.9 -12.7,-2.6 -3.9,-1.6 -7.4,-4 -10.4,-7 -3,-3 -5.3,-6.5 -7,-10.4 -1.7,-4 -2.6,-8.3 -2.6,-12.7 0,-4.4 0.9,-8.701 2.6,-12.701 1.6,-3.899 4,-7.399 7,-10.399 3,-3 6.5,-5.3 10.4,-7 4,-1.7 8.3,-2.601 12.7,-2.601 4.399,0 8.7,0.901 12.7,2.601 3.9,1.6 7.4,4 10.4,7" /></g><g
           transform="translate(10.1001,50.8002)"
           id="g28"><path
             id="path30"
             style="fill:#282828;fill-opacity:1;fill-rule:nonzero;stroke:none"
             d="M 0,0 C 0,-1.2 0.9,-2.101 2.1,-2.101 3.3,-2.101 4.2,-1.2 4.2,0 4.2,1.2 3.3,2.1 2.1,2.1 0.9,2.1 0,1.2 0,0" /></g><g
           transform="translate(89.4004,50.8002)"
           id="g32"><path
             id="path34"
             style="fill:#282828;fill-opacity:1;fill-rule:nonzero;stroke:none"
             d="M 0,0 C 0,1.2 -0.9,2.1 -2.101,2.1 -3.301,2.1 -4.2,1.2 -4.2,0 c 0,-1.2 0.899,-2.101 2.099,-2.101 C -0.9,-2.101 0,-1.2 0,0" /></g><g
           transform="translate(18.1001,65.8002)"
           id="g36"><path
             id="path38"
             style="fill:#282828;fill-opacity:1;fill-rule:nonzero;stroke:none"
             d="m 0,0 -0.9,0.3 -1.7,-3.9 -3,1.2 1.6,3.7 -1,0.4 -1.5,-3.7 -2.2,0.9 1.6,4 -0.9,0.4 -2.1,-5.1 8.1,-3.3 z" /></g><g
           transform="translate(18.6001,66.7001)"
           id="g40"><path
             id="path42"
             style="fill:#282828;fill-opacity:1;fill-rule:nonzero;stroke:none"
             d="M 0,0 0.7,1 -1,4.8 3.1,4.5 3.8,5.6 -1.4,5.9 -3.4,10.6 -4.1,9.5 -2.4,5.8 -6.5,6 -7.2,4.9 -2.1,4.7 Z" /></g><g
           transform="translate(20.1001,76.2001)"
           id="g44"><path
             id="path46"
             style="fill:#282828;fill-opacity:1;fill-rule:nonzero;stroke:none"
             d="m 0,0 c 0.5,-0.5 1,-0.9 1.5,-1.2 0.5,-0.3 1,-0.4 1.6,-0.5 0.5,0 1,0 1.5,0.2 0.5,0.2 0.9,0.5 1.3,0.9 C 6.2,-0.4 6.3,-0.2 6.5,0 6.6,0.2 6.8,0.4 6.9,0.6 7,0.8 7.1,1 7.2,1.2 7.3,1.4 7.3,1.6 7.4,1.8 l -0.9,1 H 6.4 V 2.3 C 6.4,2.1 6.3,1.9 6.3,1.6 6.2,1.4 6.1,1.1 6,0.9 5.8,0.6 5.7,0.4 5.4,0.2 5.1,-0.1 4.8,-0.2 4.5,-0.4 4.2,-0.5 3.8,-0.6 3.4,-0.5 3,-0.5 2.6,-0.3 2.2,-0.1 1.8,0.1 1.4,0.4 1,0.9 0.6,1.3 0.3,1.7 0.1,2.1 c -0.2,0.4 -0.3,0.8 -0.4,1.2 0,0.4 0,0.8 0.2,1.1 C 0,4.7 0.2,5 0.5,5.3 0.7,5.5 1,5.7 1.2,5.8 1.4,5.9 1.7,6 1.9,6.1 2.2,6.2 2.4,6.2 2.6,6.2 h 0.5 l 0.1,0.1 -1,1 C 2,7.2 1.8,7.2 1.6,7.1 1.4,7 1.2,6.9 1,6.9 0.8,6.8 0.6,6.7 0.4,6.5 0.2,6.4 0,6.2 -0.2,6 -0.6,5.6 -0.9,5.2 -1.2,4.7 -1.4,4.2 -1.5,3.7 -1.5,3.2 -1.5,2.7 -1.4,2.1 -1.1,1.6 -0.9,1.1 -0.5,0.6 0,0" /></g><g
           transform="translate(33.6001,81.2001)"
           id="g48"><path
             id="path50"
             style="fill:#282828;fill-opacity:1;fill-rule:nonzero;stroke:none"
             d="m 0,0 -0.5,0.9 -3.3,-2.1 -4.1,6.6 -1,-0.6 4.6,-7.5 z" /></g><g
           transform="translate(34.3999,83.4999)"
           id="g52"><path
             id="path54"
             style="fill:#282828;fill-opacity:1;fill-rule:nonzero;stroke:none"
             d="M 0,0 C 0.3,-0.4 0.6,-0.6 1,-0.8 1.3,-1 1.7,-1 2.1,-1 c 0.4,0 0.8,0.1 1.3,0.3 0.5,0.2 0.9,0.4 1.2,0.6 C 4.9,0.1 5.1,0.4 5.3,0.8 5.6,1.1 5.6,1.5 5.6,2 5.6,2.4 5.5,3 5.2,3.5 L 3.4,8.6 2.3,8.2 4.1,3 C 4.2,2.6 4.3,2.3 4.4,2 4.5,1.7 4.4,1.5 4.4,1.2 4.3,0.9 4.2,0.7 4,0.5 3.8,0.3 3.5,0.1 3.2,0 2.8,-0.1 2.5,-0.2 2.2,-0.2 1.9,-0.2 1.6,-0.1 1.4,0.1 1.2,0.3 1,0.5 0.9,0.7 0.8,0.9 0.6,1.3 0.5,1.6 L -1.4,6.9 -2.5,6.5 -0.7,1.4 C -0.5,0.8 -0.2,0.3 0,0" /></g><g
           transform="translate(42,89.8002)"
           id="g56"><path
             id="path58"
             style="fill:#282828;fill-opacity:1;fill-rule:nonzero;stroke:none"
             d="M 0,0 C 0.1,-0.2 0.3,-0.5 0.5,-0.6 0.7,-0.8 0.9,-0.9 1.2,-1 1.5,-1.1 1.7,-1.2 2,-1.2 c 0.3,0 0.6,-0.1 0.9,-0.1 0.2,0 0.5,-0.1 0.8,-0.1 C 4.1,-1.5 4.4,-1.6 4.6,-1.8 4.8,-2 4.9,-2.3 5,-2.6 5.1,-3 4.9,-3.4 4.6,-3.7 4.3,-4 3.8,-4.2 3.2,-4.3 c -0.4,-0.1 -0.9,0 -1.4,0.1 -0.5,0.1 -1,0.4 -1.4,0.7 H 0.3 l 0.2,-1.4 c 0.4,-0.1 0.8,-0.3 1.3,-0.3 0.5,-0.1 1,-0.1 1.6,0 0.5,0.1 1,0.2 1.3,0.4 0.3,0.2 0.6,0.4 0.9,0.7 0.2,0.3 0.4,0.6 0.5,0.9 0.1,0.3 0.1,0.7 0.1,1 -0.1,0.5 -0.3,1 -0.6,1.3 C 5.3,-0.6 4.8,-0.3 4.2,-0.2 4,-0.2 3.7,-0.1 3.3,-0.1 2.9,-0.1 2.6,0 2.4,0 2,0.1 1.7,0.2 1.5,0.4 1.3,0.6 1,0.8 1,1.1 1,1.5 1.1,1.9 1.4,2.1 1.7,2.4 2.1,2.6 2.7,2.6 3.2,2.7 3.6,2.6 4.1,2.5 4.6,2.4 4.9,2.2 5.2,2 H 5.3 L 5,3.4 C 4.6,3.5 4.2,3.6 3.7,3.7 H 2.3 C 1.5,3.6 0.8,3.3 0.3,2.7 -0.2,2.2 -0.4,1.5 -0.3,0.8 -0.2,0.5 -0.1,0.2 0,0" /></g><g
           transform="translate(53.2998,85.7001)"
           id="g60"><path
             id="path62"
             style="fill:#282828;fill-opacity:1;fill-rule:nonzero;stroke:none"
             d="M 0,0 H -1.1 L -0.8,7 0.3,6.9 0.4,7.8 -3,8 -3.1,7.1 -1.899,7 -2.3,0.1 -3.4,0.2 -3.5,-0.7 -0.1,-0.9 Z" /></g><g
           transform="translate(57.2002,84.1)"
           id="g64"><path
             id="path66"
             style="fill:#282828;fill-opacity:1;fill-rule:nonzero;stroke:none"
             d="M 0,0 1.2,-0.3 2.899,7.2 5.8,6.6 6,7.6 -0.8,9.2 -1,8.2 1.8,7.5 Z" /></g><g
           transform="translate(62.5996,83.4999)"
           id="g68"><path
             id="path70"
             style="fill:#282828;fill-opacity:1;fill-rule:nonzero;stroke:none"
             d="m 0,0 -0.3,-0.9 3.101,-1.3 0.3,0.8 -1,0.5 L 4.9,5.4 5.9,5 6.301,5.8 3.2,7.1 2.801,6.3 3.801,5.9 1,-0.5 Z" /></g><g
           transform="translate(77.2998,84.1)"
           id="g72"><path
             id="path74"
             style="fill:#282828;fill-opacity:1;fill-rule:nonzero;stroke:none"
             d="M 0,0 -1,0.6 -7,-4 -5,3.3 -6,4 l -2.399,-8.9 1,-0.7 z" /></g><g
           transform="translate(74.5996,75.8998)"
           id="g76"><path
             id="path78"
             style="fill:#282828;fill-opacity:1;fill-rule:nonzero;stroke:none"
             d="M 0,0 -0.8,0.7 -1.399,0.1 1,-2.3 1.601,-1.6 0.801,-0.9 5.7,4.1 6.5,3.3 7.101,4 4.7,6.3 4.101,5.7 4.9,4.9 Z" /></g><g
           transform="translate(78.7998,69.4999)"
           id="g80"><path
             id="path82"
             style="fill:#282828;fill-opacity:1;fill-rule:nonzero;stroke:none"
             d="M 0,0 6.3,4.4 8,2.1 8.8,2.6 4.8,8.4 3.9,7.8 5.601,5.4 -0.6,1 Z" /></g><g
           transform="translate(81.0996,65.8002)"
           id="g84"><path
             id="path86"
             style="fill:#282828;fill-opacity:1;fill-rule:nonzero;stroke:none"
             d="M 0,0 2.2,-5 3.101,-4.6 1.4,-0.7 4.4,0.6 6,-3.1 6.9,-2.7 5.4,1 7.601,2 9.2,-2 l 1,0.4 -2.2,5 z" /></g><g
           transform="translate(50,3.3002)"
           id="g88"><path
             id="path90"
             style="fill:#282828;fill-opacity:1;fill-rule:nonzero;stroke:none"
             d="m 0,0 c -25.4,0 -46,21 -46,46.8 0,25.7 20.6,46.6 46,46.6 25.4,0 46,-21 46,-46.7 C 46,20.899 25.4,0 0,0 m 0,94.4 c -25.9,0 -47,-21.4 -47,-47.7 0,-26.301 21.1,-47.801 47,-47.801 25.9,0 47,21.5 47,47.801 C 47,73 25.9,94.4 0,94.4" /></g><g
           transform="translate(13.5,34.6996)"
           id="g92"><path
             id="path94"
             style="fill:#282828;fill-opacity:1;fill-rule:nonzero;stroke:none"
             d="m 0,0 1.7,-3.699 1,0.5 L 1,0.4 l 2.2,1 1.8,-3.9 0.9,0.4 -2.3,5 -7.9,-3.7 2.3,-4.899 0.9,0.399 -1.8,3.901 z" /></g><g
           transform="translate(23,27.5004)"
           id="g96"><path
             id="path98"
             style="fill:#282828;fill-opacity:1;fill-rule:nonzero;stroke:none"
             d="m 0,0 -4,-0.301 1.5,3.7 -0.8,1 -1.9,-4.7 -5.1,-0.399 0.7,-1 4.1,0.399 -1.5,-3.8 0.7,-1.099 2,4.8 5.1,0.4 z" /></g><g
           transform="translate(27.2002,22.1)"
           id="g100"><path
             id="path102"
             style="fill:#282828;fill-opacity:1;fill-rule:nonzero;stroke:none"
             d="m 0,0 c 0.1,-0.2 0.3,-0.5 0.3,-0.7 0.1,-0.2 0.1,-0.5 0.2,-0.7 0,-0.2 0.1,-0.4 0.1,-0.5 L 0.7,-2 1.6,-1 C 1.5,-0.8 1.4,-0.6 1.4,-0.4 1.3,-0.2 1.2,0 1.1,0.1 1,0.3 0.8,0.5 0.7,0.7 0.5,0.9 0.3,1.1 0.1,1.3 -0.3,1.7 -0.8,2 -1.3,2.1 -1.8,2.3 -2.3,2.3 -2.8,2.3 -3.3,2.2 -3.9,2.1 -4.4,1.8 -4.9,1.5 -5.4,1.1 -5.9,0.6 -6.4,0.1 -6.8,-0.5 -7,-1 c -0.2,-0.5 -0.3,-1.1 -0.3,-1.6 0,-0.5 0.1,-1 0.4,-1.5 0.2,-0.5 0.6,-0.9 1,-1.3 0.3,-0.2 0.5,-0.4 0.7,-0.5 0.2,-0.1 0.4,-0.2 0.7,-0.3 0.2,-0.1 0.4,-0.2 0.6,-0.2 0.2,-0.1 0.4,-0.1 0.6,-0.2 l 0.9,1 -0.1,0.1 H -3 c -0.2,0 -0.4,0 -0.7,0.1 -0.2,0.1 -0.5,0.1 -0.8,0.3 -0.3,0.1 -0.5,0.3 -0.8,0.5 -0.3,0.2 -0.5,0.5 -0.6,0.9 -0.1,0.3 -0.2,0.7 -0.2,1.1 0,0.4 0.1,0.8 0.3,1.2 0.2,0.4 0.5,0.8 0.9,1.3 0.4,0.4 0.8,0.8 1.2,1 0.4,0.2 0.8,0.4 1.2,0.5 0.4,0.1 0.8,0 1.1,-0.1 C -1.1,1.2 -0.7,1 -0.5,0.8 -0.3,0.4 -0.1,0.2 0,0" /></g><g
           transform="translate(30.2998,20.8998)"
           id="g104"><path
             id="path106"
             style="fill:#282828;fill-opacity:1;fill-rule:nonzero;stroke:none"
             d="m 0,0 -4.4,-7.5 4.3,-2.6 0.5,0.9 -3.3,2 3.9,6.6 z" /></g><g
           transform="translate(38.7002,11.0004)"
           id="g108"><path
             id="path110"
             style="fill:#282828;fill-opacity:1;fill-rule:nonzero;stroke:none"
             d="m 0,0 c -0.1,-0.4 -0.3,-0.7 -0.4,-0.9 -0.1,-0.201 -0.3,-0.401 -0.5,-0.6 -0.2,-0.2 -0.5,-0.301 -0.8,-0.301 -0.3,0 -0.6,0 -1,0.101 -0.4,0.099 -0.7,0.3 -0.9,0.5 -0.2,0.2 -0.4,0.399 -0.4,0.7 -0.1,0.3 -0.1,0.5 0,0.8 0,0.3 0.1,0.599 0.3,1 L -1.9,6.399 -3,6.8 -4.8,1.699 C -5,1.1 -5.1,0.6 -5.1,0.199 -5.1,-0.2 -5,-0.7 -4.8,-1 c 0.2,-0.301 0.4,-0.601 0.7,-0.9 0.3,-0.3 0.7,-0.5 1.2,-0.6 0.5,-0.2 1,-0.301 1.3,-0.301 0.4,0 0.8,0.101 1.1,0.301 0.4,0.199 0.7,0.5 1,0.8 0.3,0.3 0.5,0.8 0.7,1.399 L 3,4.8 1.9,5.199 Z" /></g><g
           transform="translate(46,15.3002)"
           id="g112"><path
             id="path114"
             style="fill:#282828;fill-opacity:1;fill-rule:nonzero;stroke:none"
             d="m 0,0 c -0.8,0.1 -1.6,-0.101 -2.2,-0.5 -0.6,-0.4 -0.9,-1 -1,-1.7 v -0.901 c 0.1,-0.299 0.2,-0.5 0.3,-0.699 0.2,-0.2 0.4,-0.4 0.6,-0.5 0.2,-0.1 0.5,-0.301 0.8,-0.4 0.3,-0.1 0.6,-0.2 0.8,-0.3 C -0.5,-5.101 -0.2,-5.2 0,-5.3 0.4,-5.4 0.6,-5.601 0.8,-5.9 0.9,-6.101 1,-6.4 1,-6.8 0.9,-7.2 0.7,-7.601 0.4,-7.8 0,-8 -0.5,-8.101 -1.1,-8 c -0.4,0.1 -0.9,0.2 -1.4,0.5 -0.5,0.3 -0.9,0.6 -1.2,1 H -3.8 L -4,-8 c 0.4,-0.2 0.8,-0.4 1.2,-0.601 0.4,-0.199 1,-0.299 1.6,-0.399 0.5,-0.101 1,0 1.3,0 0.4,0.1 0.7,0.3 1,0.5 0.3,0.2 0.5,0.5 0.7,0.8 0.2,0.3 0.3,0.599 0.3,1 0.1,0.5 0,1 -0.3,1.4 -0.2,0.4 -0.6,0.699 -1.2,1 -0.2,0.1 -0.5,0.199 -0.9,0.3 -0.3,0.1 -0.6,0.2 -0.9,0.3 -0.4,0.099 -0.6,0.3 -0.8,0.599 V -2.2 c 0,0.4 0.3,0.7 0.6,0.9 0.4,0.199 0.8,0.3 1.3,0.199 C 0.4,-1.2 0.8,-1.3 1.2,-1.5 1.6,-1.7 1.9,-2 2.2,-2.3 h 0.1 l 0.2,1.4 C 2.2,-0.7 1.8,-0.5 1.3,-0.3 0.9,-0.2 0.5,-0.101 0,0" /></g><g
           transform="translate(52.7998,7.1996)"
           id="g116"><path
             id="path118"
             style="fill:#282828;fill-opacity:1;fill-rule:nonzero;stroke:none"
             d="M 0,0 -0.399,6.9 H 0.7 V 7.801 L -2.7,7.7 V 6.801 h 1.2 L -1.2,-0.1 -2.3,-0.199 V -1 l 3.401,0.101 V 0 Z" /></g><g
           transform="translate(61.2002,16.5004)"
           id="g120"><path
             id="path122"
             style="fill:#282828;fill-opacity:1;fill-rule:nonzero;stroke:none"
             d="m 0,0 -6.8,-1.5 0.199,-1 2.901,0.6 1.7,-7.5 1.1,0.299 -1.701,7.5 L 0.3,-1 Z" /></g><g
           transform="translate(67.2002,10.6)"
           id="g124"><path
             id="path126"
             style="fill:#282828;fill-opacity:1;fill-rule:nonzero;stroke:none"
             d="m 0,0 -2.7,6.4 1,0.5 -0.401,0.8 -3.099,-1.3 0.4,-0.9 1,0.5 2.699,-6.4 -1,-0.5 L -1.8,-1.7 1.3,-0.4 1,0.5 Z" /></g><g
           transform="translate(71.0996,21.8002)"
           id="g128"><path
             id="path130"
             style="fill:#282828;fill-opacity:1;fill-rule:nonzero;stroke:none"
             d="m 0,0 1.9,-7.4 -6,4.799 L -5.1,-3.3 2.101,-9 3.2,-8.3 1,0.6 Z" /></g><g
           transform="translate(79.5996,18.8998)"
           id="g132"><path
             id="path134"
             style="fill:#282828;fill-opacity:1;fill-rule:nonzero;stroke:none"
             d="M 0,0 -4.699,5.101 -3.899,5.8 -4.5,6.5 -7,4.2 -6.399,3.5 -5.6,4.3 -0.8,-0.8 -1.699,-1.6 -1.1,-2.2 1.4,0.101 0.801,0.7 Z" /></g><g
           transform="translate(80.9004,30.8998)"
           id="g136"><path
             id="path138"
             style="fill:#282828;fill-opacity:1;fill-rule:nonzero;stroke:none"
             d="M 0,0 -0.801,0.601 -5.101,-5 -4.301,-5.6 -2.5,-3.3 3.6,-7.899 4.3,-7 -1.801,-2.3 Z" /></g><g
           transform="translate(88,30.1996)"
           id="g140"><path
             id="path142"
             style="fill:#282828;fill-opacity:1;fill-rule:nonzero;stroke:none"
             d="M 0,0 -2.9,1.4 -1.2,5 -2.1,5.5 -3.8,1.9 -6,2.9 -4.1,6.801 -5.1,7.2 -7.4,2.301 0.4,-1.5 2.8,3.5 1.9,3.9 Z" /></g><g
           transform="translate(79.2607,34.017)"
           id="g144"><path
             id="path146"
             style="fill:#282828;fill-opacity:1;fill-rule:nonzero;stroke:none"
             d="M 0,0 1.328,3.984 2.277,3.669 0.948,-0.316 Z" /></g><g
           transform="translate(90.041,69.187)"
           id="g148"><path
             id="path150"
             style="fill:#282828;fill-opacity:1;fill-rule:nonzero;stroke:none"
             d="M 0,0 0.876,0.482 2.9,-3.198 2.024,-3.68 Z" /></g></g></g></g></svg>