<?xml version="1.0" encoding="UTF-8" standalone="no"?>
<svg
   xmlns:dc="http://purl.org/dc/elements/1.1/"
   xmlns:cc="http://creativecommons.org/ns#"
   xmlns:rdf="http://www.w3.org/1999/02/22-rdf-syntax-ns#"
   xmlns:svg="http://www.w3.org/2000/svg"
   xmlns="http://www.w3.org/2000/svg"
   viewBox="0 0 177.77733 177.77733"
   height="177.77733"
   width="177.77733"
   xml:space="preserve"
   id="svg2"
   version="1.1"><metadata
     id="metadata8"><rdf:RDF><cc:Work
         rdf:about=""><dc:format>image/svg+xml</dc:format><dc:type
           rdf:resource="http://purl.org/dc/dcmitype/StillImage" /></cc:Work></rdf:RDF></metadata><defs
     id="defs6"><clipPath
       id="clipPath18"
       clipPathUnits="userSpaceOnUse"><path
         id="path16"
         d="M 0,133.333 H 133.333 V 0 H 0 Z" /></clipPath></defs><g
     transform="matrix(1.3333333,0,0,-1.3333333,0,177.77733)"
     id="g10"><g
       id="g12"><g
         clip-path="url(#clipPath18)"
         id="g14"><g
           transform="translate(23.1951,102.8121)"
           id="g20"><path
             id="path22"
             style="fill:#020203;fill-opacity:1;fill-rule:nonzero;stroke:none"
             d="M 0,0 C 0.296,-0.036 0.593,-0.022 0.891,0.042 1.188,0.106 1.571,0.21 2.038,0.353 2.543,0.512 2.962,0.625 3.297,0.693 3.632,0.76 3.977,0.765 4.332,0.709 4.687,0.652 5.017,0.492 5.322,0.228 5.675,-0.077 5.909,-0.445 6.023,-0.877 6.137,-1.308 6.129,-1.762 5.997,-2.237 5.866,-2.712 5.625,-3.161 5.275,-3.584 5.017,-3.896 4.705,-4.185 4.339,-4.452 3.973,-4.718 3.69,-4.866 3.49,-4.896 3.435,-4.908 3.388,-4.912 3.35,-4.908 3.312,-4.905 3.265,-4.88 3.211,-4.833 l -1.645,1.367 -0.01,0.009 c -0.027,0.023 -0.028,0.053 -0.003,0.091 0.025,0.038 0.055,0.048 0.087,0.032 0.587,-0.15 1.073,-0.258 1.461,-0.325 0.387,-0.066 0.778,-0.065 1.172,0.004 0.395,0.069 0.719,0.256 0.972,0.562 0.229,0.277 0.346,0.568 0.349,0.875 0.003,0.306 -0.172,0.612 -0.525,0.917 C 4.771,-1.043 4.453,-0.885 4.117,-0.827 3.781,-0.769 3.455,-0.769 3.138,-0.829 2.821,-0.888 2.414,-0.994 1.915,-1.146 1.429,-1.297 1.036,-1.4 0.734,-1.455 0.433,-1.509 0.122,-1.512 -0.197,-1.462 c -0.32,0.05 -0.622,0.198 -0.907,0.445 -0.36,0.31 -0.576,0.678 -0.649,1.104 -0.073,0.425 -0.031,0.856 0.126,1.291 0.157,0.435 0.387,0.837 0.691,1.205 0.201,0.242 0.427,0.469 0.678,0.681 0.251,0.211 0.47,0.367 0.657,0.467 0.079,0.039 0.142,0.055 0.19,0.05 C 0.637,3.775 0.684,3.752 0.732,3.711 L 2.229,2.418 C 2.249,2.401 2.25,2.37 2.231,2.327 2.213,2.283 2.191,2.267 2.164,2.277 L 1.902,2.361 C 1.331,2.557 0.8,2.668 0.309,2.694 -0.182,2.719 -0.6,2.524 -0.944,2.108 -1.174,1.831 -1.283,1.536 -1.274,1.225 -1.264,0.913 -1.11,0.628 -0.811,0.37 -0.567,0.159 -0.296,0.036 0,0" /></g><g
           transform="translate(32.4082,104.4318)"
           id="g24"><path
             id="path26"
             style="fill:#020203;fill-opacity:1;fill-rule:nonzero;stroke:none"
             d="M 0,0 C 0.132,-0.056 0.281,-0.045 0.446,0.032 0.611,0.109 0.835,0.278 1.121,0.538 1.141,0.556 1.168,0.545 1.204,0.504 1.239,0.463 1.247,0.434 1.227,0.416 0.955,0.168 0.74,-0.022 0.582,-0.154 L -0.293,-0.933 -1.01,-1.605 c -0.127,-0.128 -0.303,-0.295 -0.528,-0.5 -0.02,-0.018 -0.048,-0.007 -0.084,0.034 -0.035,0.04 -0.043,0.07 -0.023,0.088 0.212,0.193 0.352,0.351 0.418,0.472 0.067,0.122 0.074,0.247 0.021,0.375 -0.053,0.129 -0.168,0.295 -0.345,0.498 L -5.662,4.067 C -5.839,4.27 -5.986,4.404 -6.102,4.469 -6.218,4.533 -6.342,4.539 -6.474,4.485 -6.606,4.432 -6.775,4.312 -6.981,4.124 -7,4.106 -7.028,4.117 -7.064,4.158 -7.099,4.199 -7.107,4.228 -7.087,4.246 l 0.536,0.471 c 0.317,0.264 0.565,0.478 0.744,0.641 0.159,0.145 0.339,0.328 0.54,0.548 0.081,0.085 0.184,0.191 0.311,0.319 0.127,0.128 0.276,0.27 0.449,0.428 0.676,0.616 1.336,0.959 1.979,1.028 C -1.885,7.749 -1.3,7.482 -0.774,6.879 -0.407,6.459 -0.202,6.007 -0.16,5.522 -0.118,5.037 -0.199,4.568 -0.404,4.114 -0.608,3.659 -0.887,3.272 -1.238,2.951 -1.417,2.788 -1.588,2.663 -1.75,2.576 -1.763,2.564 -1.785,2.575 -1.814,2.609 c -0.018,0.02 -0.031,0.045 -0.039,0.074 -0.007,0.03 -0.002,0.047 0.018,0.052 0.123,0.064 0.247,0.153 0.373,0.268 0.305,0.278 0.432,0.655 0.38,1.131 C -1.135,4.609 -1.394,5.115 -1.862,5.65 -2.33,6.185 -2.802,6.497 -3.278,6.586 -3.755,6.675 -4.206,6.526 -4.63,6.139 -4.816,5.97 -4.904,5.81 -4.893,5.662 -4.882,5.513 -4.765,5.311 -4.54,5.053 L -0.482,0.409 C -0.293,0.192 -0.132,0.056 0,0" /></g><g
           transform="translate(35.6506,110.967)"
           id="g28"><path
             id="path30"
             style="fill:#020203;fill-opacity:1;fill-rule:nonzero;stroke:none"
             d="M 0,0 2.437,1.619 -0.507,3.368 Z M 7.604,0.974 C 7.633,0.929 7.629,0.893 7.591,0.869 7.442,0.77 7.207,0.624 6.884,0.431 6.546,0.228 6.307,0.08 6.165,-0.014 5.979,-0.138 5.756,-0.297 5.498,-0.49 5.254,-0.674 5.058,-0.815 4.909,-0.914 4.879,-0.934 4.85,-0.921 4.821,-0.875 c -0.03,0.046 -0.029,0.078 0.001,0.098 0.193,0.129 0.32,0.243 0.379,0.341 0.059,0.099 0.055,0.202 -0.013,0.308 C 5.105,0.002 4.892,0.169 4.549,0.375 L 2.808,1.411 0.058,-0.416 0.255,-1.699 c 0.044,-0.285 0.126,-0.523 0.247,-0.713 0.175,-0.274 0.406,-0.424 0.693,-0.45 0.287,-0.026 0.59,0.067 0.911,0.28 0.037,0.025 0.07,0.015 0.099,-0.031 C 2.234,-2.659 2.23,-2.694 2.193,-2.719 2.059,-2.808 1.86,-2.929 1.597,-3.082 1.304,-3.255 1.053,-3.411 0.845,-3.549 0.644,-3.683 0.406,-3.852 0.133,-4.055 c -0.244,-0.184 -0.444,-0.327 -0.6,-0.431 -0.03,-0.02 -0.06,-0.007 -0.089,0.038 -0.029,0.046 -0.028,0.079 0.001,0.099 0.209,0.138 0.356,0.298 0.442,0.48 0.086,0.181 0.128,0.432 0.127,0.75 -0.002,0.319 -0.046,0.763 -0.133,1.333 l -1.043,7.058 c 0,0.033 0.026,0.066 0.078,0.101 0.06,0.04 0.101,0.051 0.123,0.033 L 5.41,1.645 C 6.015,1.278 6.469,1.049 6.771,0.957 7.074,0.866 7.318,0.882 7.504,1.006 7.541,1.03 7.575,1.02 7.604,0.974" /></g><g
           transform="translate(48.6007,114.6886)"
           id="g32"><path
             id="path34"
             style="fill:#020203;fill-opacity:1;fill-rule:nonzero;stroke:none"
             d="m 0,0 c -0.118,0.027 -0.28,0.075 -0.487,0.142 -0.389,0.123 -0.791,0.274 -1.205,0.452 -0.414,0.179 -0.79,0.367 -1.129,0.566 -0.153,-0.384 -0.17,-0.729 -0.05,-1.037 0.089,-0.231 0.238,-0.422 0.448,-0.573 0.209,-0.152 0.46,-0.242 0.753,-0.271 0.292,-0.029 0.601,0.022 0.925,0.153 C -0.409,-0.432 -0.161,-0.243 0,0 m -2.473,2.234 c 0.253,0.575 0.291,1.093 0.112,1.555 -0.101,0.26 -0.24,0.44 -0.415,0.54 -0.176,0.1 -0.36,0.111 -0.551,0.034 C -3.49,4.298 -3.585,4.198 -3.613,4.063 -3.641,3.928 -3.614,3.755 -3.532,3.541 -3.353,3.08 -3,2.644 -2.473,2.234 M 2.644,0.478 C 2.654,0.444 2.65,0.424 2.632,0.417 L 1.207,-0.159 C 1.045,-0.225 0.711,-0.192 0.205,-0.061 -0.09,-0.598 -0.574,-1.002 -1.246,-1.273 c -0.399,-0.162 -0.758,-0.238 -1.076,-0.23 -0.319,0.009 -0.582,0.083 -0.791,0.225 -0.209,0.141 -0.355,0.322 -0.44,0.541 -0.11,0.284 -0.113,0.577 -0.009,0.879 0.104,0.302 0.293,0.679 0.567,1.132 -0.141,0.087 -0.286,0.193 -0.435,0.317 -0.145,0.133 -0.268,0.265 -0.369,0.395 -0.101,0.131 -0.185,0.285 -0.254,0.462 -0.186,0.479 -0.189,0.933 -0.01,1.362 0.18,0.428 0.527,0.746 1.043,0.954 0.359,0.145 0.673,0.182 0.942,0.109 0.27,-0.072 0.458,-0.248 0.566,-0.526 0.089,-0.231 0.106,-0.469 0.05,-0.714 C -1.518,3.388 -1.605,3.167 -1.722,2.969 -1.84,2.771 -2.028,2.479 -2.288,2.094 -1.625,1.629 -0.803,1.243 0.181,0.935 0.153,1.163 0.088,1.408 -0.013,1.668 -0.145,2.011 -0.297,2.239 -0.468,2.351 -0.639,2.464 -0.849,2.47 -1.098,2.369 -1.11,2.364 -1.124,2.379 -1.14,2.413 -1.157,2.448 -1.157,2.469 -1.139,2.475 L 0.926,3.32 C 0.943,3.327 0.958,3.313 0.972,3.277 0.986,3.242 0.984,3.22 0.967,3.213 0.793,3.143 0.671,3.072 0.602,2.999 0.533,2.927 0.494,2.838 0.485,2.731 0.476,2.625 0.483,2.464 0.507,2.247 0.535,1.985 0.552,1.742 0.558,1.519 0.564,1.295 0.547,1.069 0.508,0.842 0.997,0.704 1.42,0.611 1.777,0.564 2.133,0.516 2.405,0.503 2.591,0.523 2.617,0.526 2.634,0.511 2.644,0.478" /></g><g
           transform="translate(55.766,116.7615)"
           id="g36"><path
             id="path38"
             style="fill:#020203;fill-opacity:1;fill-rule:nonzero;stroke:none"
             d="m 0,0 c 0.086,-0.117 0.22,-0.184 0.4,-0.203 0.181,-0.018 0.458,0.011 0.833,0.088 0.026,0.006 0.045,-0.018 0.055,-0.072 C 1.299,-0.24 1.291,-0.27 1.265,-0.275 0.907,-0.348 0.628,-0.401 0.425,-0.434 l -1.139,-0.22 -0.952,-0.209 c -0.173,-0.045 -0.407,-0.098 -0.703,-0.159 -0.026,-0.005 -0.045,0.019 -0.055,0.072 -0.011,0.054 -0.003,0.083 0.023,0.088 0.279,0.058 0.477,0.122 0.595,0.192 0.117,0.071 0.185,0.175 0.203,0.313 0.019,0.138 10e-4,0.341 -0.051,0.608 L -2.872,6.433 C -2.924,6.7 -2.985,6.891 -3.053,7.007 -3.121,7.122 -3.225,7.191 -3.365,7.214 -3.506,7.236 -3.711,7.219 -3.981,7.163 -4.007,7.158 -4.026,7.182 -4.036,7.235 -4.047,7.289 -4.039,7.318 -4.013,7.324 l 0.696,0.129 c 0.404,0.064 0.724,0.121 0.959,0.169 0.209,0.043 0.455,0.107 0.737,0.193 0.112,0.032 0.254,0.071 0.426,0.116 0.173,0.044 0.372,0.09 0.599,0.136 C 0.293,8.25 1.032,8.205 1.621,7.932 2.209,7.66 2.581,7.127 2.738,6.335 2.846,5.783 2.799,5.287 2.595,4.847 2.392,4.407 2.089,4.044 1.688,3.758 1.286,3.471 0.854,3.281 0.393,3.186 0.157,3.137 -0.052,3.118 -0.235,3.126 -0.252,3.123 -0.265,3.143 -0.274,3.188 -0.279,3.214 -0.278,3.242 -0.27,3.272 -0.262,3.301 -0.249,3.313 -0.23,3.308 -0.092,3.299 0.059,3.312 0.225,3.346 0.626,3.428 0.922,3.688 1.112,4.125 1.302,4.563 1.329,5.133 1.19,5.836 1.051,6.54 0.799,7.053 0.431,7.375 0.064,7.698 -0.399,7.802 -0.956,7.688 -1.2,7.638 -1.355,7.546 -1.419,7.412 -1.483,7.278 -1.482,7.042 -1.416,6.704 L -0.214,0.602 C -0.158,0.317 -0.086,0.116 0,0" /></g><g
           transform="translate(63.5886,121.7659)"
           id="g40"><path
             id="path42"
             style="fill:#020203;fill-opacity:1;fill-rule:nonzero;stroke:none"
             d="M 0,0 C 0.515,0.019 0.881,0.18 1.097,0.483 1.313,0.786 1.41,1.265 1.387,1.918 1.361,2.662 1.236,3.171 1.013,3.444 0.79,3.718 0.478,3.847 0.078,3.833 -0.277,3.82 -0.528,3.742 -0.674,3.6 -0.82,3.459 -0.888,3.229 -0.877,2.912 L -0.775,0.026 C -0.56,-0.003 -0.302,-0.011 0,0 M 5.843,-4.146 C 5.845,-4.201 5.837,-4.228 5.82,-4.229 L 3.448,-4.316 C 3.252,-4.323 2.875,-3.976 2.317,-3.274 1.758,-2.573 1.079,-1.587 0.278,-0.317 0.207,-0.329 0.105,-0.337 -0.028,-0.342 -0.374,-0.355 -0.619,-0.359 -0.761,-0.355 l 0.106,-3.008 c 0.009,-0.282 0.039,-0.485 0.088,-0.61 0.049,-0.126 0.138,-0.209 0.269,-0.249 0.13,-0.041 0.337,-0.056 0.622,-0.046 0.018,10e-4 0.027,-0.026 0.029,-0.08 C 0.355,-4.403 0.347,-4.43 0.33,-4.431 0.036,-4.442 -0.195,-4.446 -0.364,-4.443 l -1.013,-0.023 -0.972,-0.05 c -0.178,-0.015 -0.418,-0.029 -0.719,-0.04 -0.027,-0.001 -0.041,0.026 -0.043,0.08 -0.002,0.055 0.01,0.083 0.037,0.083 0.284,0.011 0.49,0.041 0.617,0.091 0.127,0.05 0.213,0.142 0.257,0.276 0.044,0.133 0.062,0.336 0.052,0.608 L -2.37,2.884 c -0.01,0.272 -0.039,0.471 -0.088,0.596 -0.049,0.126 -0.141,0.211 -0.276,0.256 -0.135,0.045 -0.34,0.062 -0.615,0.052 -0.018,0 -0.028,0.027 -0.03,0.081 -0.002,0.054 0.006,0.082 0.024,0.083 l 0.707,0.012 c 0.409,-0.003 0.734,0 0.974,0.009 0.301,0.011 0.616,0.036 0.944,0.075 0.115,0.013 0.259,0.028 0.432,0.043 0.173,0.016 0.366,0.027 0.579,0.035 C 1.09,4.156 1.721,4.027 2.176,3.739 2.631,3.452 2.868,3.036 2.888,2.491 2.905,1.992 2.788,1.536 2.535,1.122 2.283,0.709 1.939,0.371 1.504,0.11 2.253,-0.953 2.878,-1.784 3.38,-2.383 c 0.501,-0.6 0.943,-1.033 1.326,-1.301 0.383,-0.268 0.752,-0.395 1.108,-0.382 0.018,10e-4 0.027,-0.026 0.029,-0.08" /></g><g
           transform="translate(75.9563,118.7718)"
           id="g44"><path
             id="path46"
             style="fill:#020203;fill-opacity:1;fill-rule:nonzero;stroke:none"
             d="m 0,0 c 0.027,-0.003 0.05,-0.013 0.07,-0.03 0.02,-0.016 0.03,-0.029 0.029,-0.038 -0.176,-0.691 -0.3,-1.325 -0.373,-1.901 -0.009,-0.072 -0.028,-0.122 -0.059,-0.15 -0.03,-0.028 -0.085,-0.037 -0.164,-0.027 l -5.846,0.765 c -0.027,0.003 -0.037,0.032 -0.03,0.086 0.007,0.054 0.024,0.079 0.05,0.076 0.282,-0.037 0.49,-0.042 0.623,-0.013 0.134,0.028 0.231,0.105 0.291,0.23 0.061,0.124 0.108,0.322 0.142,0.592 l 0.784,6.255 c 0.034,0.27 0.036,0.471 0.008,0.603 -0.028,0.132 -0.105,0.231 -0.232,0.298 -0.126,0.067 -0.325,0.118 -0.599,0.154 -0.026,0.004 -0.036,0.032 -0.029,0.086 0.007,0.054 0.023,0.08 0.05,0.076 L 0.323,6.329 C 0.411,6.318 0.45,6.271 0.44,6.19 L 0.241,4.39 C 0.239,4.372 0.213,4.361 0.163,4.359 0.113,4.356 0.086,4.369 0.081,4.397 0.005,4.938 -0.185,5.356 -0.488,5.652 -0.792,5.948 -1.217,6.132 -1.763,6.204 L -2.16,6.256 C -2.425,6.29 -2.626,6.257 -2.764,6.156 -2.902,6.055 -2.986,5.883 -3.017,5.64 L -3.362,2.884 -2.264,2.74 c 0.511,-0.067 0.914,-0.028 1.21,0.116 0.296,0.145 0.465,0.379 0.505,0.703 0.004,0.027 0.03,0.038 0.078,0.031 C -0.423,3.584 -0.4,3.567 -0.403,3.54 L -0.569,2.326 -0.637,1.676 C -0.658,1.368 -0.679,1.123 -0.702,0.943 -0.704,0.925 -0.732,0.92 -0.785,0.926 -0.837,0.933 -0.863,0.946 -0.86,0.964 -0.814,1.333 -0.917,1.642 -1.168,1.89 -1.419,2.137 -1.805,2.296 -2.325,2.364 L -3.41,2.505 -3.792,-0.548 c -0.033,-0.261 -0.009,-0.461 0.072,-0.6 0.082,-0.139 0.228,-0.222 0.44,-0.249 l 0.436,-0.057 c 0.688,-0.09 1.257,-0.018 1.708,0.216 0.45,0.234 0.81,0.64 1.08,1.218 C -0.054,-0.002 -0.035,0.005 0,0" /></g><g
           transform="translate(80.3087,121.8701)"
           id="g48"><path
             id="path50"
             style="fill:#020203;fill-opacity:1;fill-rule:nonzero;stroke:none"
             d="M 0,0 C 0.093,-0.29 0.23,-0.559 0.412,-0.808 0.594,-1.056 0.847,-1.367 1.171,-1.74 1.524,-2.141 1.801,-2.482 2.002,-2.764 2.203,-3.047 2.353,-3.364 2.451,-3.717 2.55,-4.069 2.547,-4.442 2.441,-4.836 2.319,-5.292 2.09,-5.663 1.755,-5.951 1.419,-6.238 1.013,-6.421 0.536,-6.499 c -0.478,-0.078 -0.978,-0.043 -1.501,0.103 -0.385,0.108 -0.774,0.276 -1.164,0.503 -0.391,0.227 -0.641,0.427 -0.752,0.599 -0.033,0.047 -0.057,0.089 -0.07,0.126 -0.013,0.036 -0.01,0.089 0.009,0.16 l 0.522,2.099 0.004,0.013 c 0.009,0.035 0.036,0.049 0.08,0.041 0.044,-0.008 0.065,-0.03 0.065,-0.067 0.113,-0.607 0.222,-1.103 0.325,-1.49 0.104,-0.387 0.269,-0.749 0.497,-1.085 0.227,-0.337 0.53,-0.559 0.907,-0.664 0.343,-0.096 0.651,-0.082 0.925,0.044 0.273,0.126 0.471,0.417 0.593,0.872 0.104,0.385 0.111,0.746 0.021,1.082 -0.089,0.335 -0.227,0.638 -0.413,0.906 -0.186,0.269 -0.451,0.602 -0.796,1 -0.339,0.387 -0.596,0.708 -0.771,0.965 -0.176,0.256 -0.308,0.543 -0.398,0.86 -0.09,0.317 -0.086,0.66 0.013,1.027 0.125,0.464 0.361,0.82 0.708,1.066 0.347,0.246 0.747,0.388 1.2,0.426 C 0.993,2.125 1.446,2.081 1.9,1.953 2.2,1.869 2.497,1.755 2.791,1.612 3.084,1.468 3.314,1.331 3.482,1.199 3.549,1.142 3.591,1.091 3.606,1.044 3.621,0.998 3.62,0.944 3.604,0.883 L 3.085,-1.048 C 3.078,-1.075 3.051,-1.088 3.005,-1.089 2.959,-1.09 2.935,-1.077 2.933,-1.048 L 2.897,-0.77 C 2.831,-0.158 2.706,0.381 2.523,0.847 2.339,1.312 1.99,1.617 1.476,1.761 1.133,1.858 0.825,1.835 0.552,1.695 0.279,1.555 0.091,1.292 -0.012,0.907 -0.097,0.592 -0.093,0.29 0,0" /></g><g
           transform="translate(85.7342,120.0663)"
           id="g52"><path
             id="path54"
             style="fill:#020203;fill-opacity:1;fill-rule:nonzero;stroke:none"
             d="M 0,0 C -0.019,-0.021 -0.048,-0.021 -0.087,0.002 -0.126,0.025 -0.139,0.049 -0.128,0.074 0.049,0.39 0.273,0.803 0.544,1.311 0.815,1.819 1.008,2.205 1.124,2.47 1.142,2.512 1.174,2.522 1.218,2.502 1.263,2.482 1.276,2.451 1.258,2.409 1.178,2.227 1.37,2.03 1.832,1.819 2.52,1.476 3.33,1.091 4.263,0.665 4.742,0.447 5.253,0.224 5.796,-0.004 l 0.833,-0.365 c 0.309,-0.141 0.543,-0.223 0.703,-0.247 0.16,-0.023 0.288,0.018 0.383,0.124 0.022,0.03 0.056,0.034 0.101,0.014 0.044,-0.02 0.059,-0.047 0.045,-0.08 C 7.728,-0.796 7.527,-1.182 7.26,-1.716 6.992,-2.25 6.786,-2.683 6.641,-3.015 6.63,-3.04 6.604,-3.043 6.564,-3.024 6.523,-3.006 6.504,-2.982 6.507,-2.954 6.664,-2.26 6.646,-1.677 6.453,-1.206 6.26,-0.735 5.92,-0.389 5.433,-0.167 5.197,-0.059 5.018,-0.04 4.896,-0.108 4.773,-0.177 4.649,-0.356 4.522,-0.646 L 2.015,-6.379 C 1.903,-6.636 1.845,-6.834 1.844,-6.972 1.841,-7.11 1.9,-7.232 2.02,-7.336 2.14,-7.441 2.35,-7.561 2.65,-7.698 2.675,-7.709 2.676,-7.74 2.654,-7.789 2.633,-7.839 2.61,-7.858 2.585,-7.847 2.293,-7.714 2.063,-7.604 1.897,-7.518 L 0.892,-7.045 -0.1,-6.607 c -0.174,0.069 -0.411,0.172 -0.712,0.309 -0.024,0.011 -0.025,0.042 -0.003,0.092 0.021,0.049 0.044,0.069 0.069,0.058 0.292,-0.134 0.518,-0.212 0.678,-0.235 0.16,-0.024 0.293,0.013 0.398,0.109 0.106,0.096 0.213,0.268 0.322,0.517 L 3.169,0.001 C 3.293,0.283 3.339,0.49 3.31,0.623 3.28,0.756 3.152,0.874 2.925,0.978 1.959,1.419 0.984,1.092 0,0" /></g><g
           transform="translate(93.2217,109.9352)"
           id="g56"><path
             id="path58"
             style="fill:#020203;fill-opacity:1;fill-rule:nonzero;stroke:none"
             d="M 0,0 C -0.027,-0.132 0.003,-0.252 0.09,-0.359 0.176,-0.467 0.341,-0.596 0.584,-0.748 0.607,-0.762 0.604,-0.792 0.576,-0.839 0.549,-0.885 0.523,-0.901 0.501,-0.887 0.25,-0.731 0.055,-0.604 -0.084,-0.506 l -0.858,0.551 -0.849,0.514 c -0.156,0.087 -0.363,0.211 -0.621,0.372 -0.015,0.01 -0.009,0.038 0.019,0.084 0.028,0.047 0.049,0.065 0.065,0.056 0.242,-0.152 0.432,-0.244 0.569,-0.276 0.137,-0.032 0.26,-0.005 0.369,0.081 0.109,0.086 0.233,0.246 0.372,0.478 l 3.22,5.38 C 2.341,6.967 2.422,7.15 2.445,7.285 2.468,7.419 2.436,7.543 2.348,7.657 2.259,7.771 2.094,7.903 1.851,8.055 1.836,8.064 1.842,8.092 1.87,8.139 1.898,8.185 1.919,8.204 1.935,8.194 L 2.542,7.799 C 2.881,7.566 3.158,7.383 3.37,7.25 3.605,7.104 3.902,6.929 4.26,6.726 L 4.847,6.376 C 4.87,6.362 4.867,6.331 4.84,6.285 4.812,6.238 4.786,6.222 4.764,6.236 4.529,6.383 4.34,6.469 4.199,6.493 4.057,6.518 3.934,6.486 3.828,6.397 3.723,6.309 3.601,6.148 3.462,5.916 L 0.256,0.558 C 0.112,0.318 0.027,0.132 0,0" /></g><g
           transform="translate(96.756,107.3733)"
           id="g60"><path
             id="path62"
             style="fill:#020203;fill-opacity:1;fill-rule:nonzero;stroke:none"
             d="M 0,0 C -0.338,0.782 -0.455,1.559 -0.352,2.331 -0.25,3.102 0.052,3.8 0.554,4.425 1.09,5.092 1.743,5.543 2.513,5.778 3.283,6.014 4.091,6.021 4.936,5.799 5.782,5.578 6.586,5.147 7.349,4.508 7.679,4.231 7.987,3.929 8.275,3.599 8.562,3.27 8.772,2.98 8.903,2.729 8.956,2.637 8.981,2.578 8.977,2.552 8.973,2.526 8.935,2.461 8.863,2.357 L 7.821,0.781 C 7.804,0.76 7.774,0.762 7.731,0.787 7.687,0.811 7.673,0.841 7.689,0.874 7.786,1.181 7.845,1.555 7.865,1.995 7.886,2.436 7.817,2.894 7.657,3.368 7.498,3.842 7.205,4.258 6.779,4.615 6.34,4.984 5.839,5.198 5.277,5.258 4.716,5.317 4.147,5.207 3.571,4.927 2.994,4.646 2.464,4.204 1.979,3.6 1.449,2.941 1.097,2.249 0.924,1.525 0.75,0.801 0.764,0.114 0.966,-0.537 1.167,-1.188 1.54,-1.74 2.083,-2.195 c 0.281,-0.237 0.523,-0.386 0.725,-0.45 0.202,-0.064 0.41,-0.033 0.626,0.092 0.215,0.125 0.467,0.366 0.754,0.724 0.294,0.365 0.477,0.637 0.552,0.815 0.074,0.178 0.064,0.348 -0.03,0.51 C 4.615,-0.343 4.4,-0.121 4.063,0.162 4.022,0.196 4.024,0.241 4.069,0.298 4.086,0.319 4.106,0.334 4.131,0.343 4.155,0.351 4.174,0.35 4.188,0.339 4.744,-0.186 5.204,-0.601 5.568,-0.906 5.919,-1.2 6.291,-1.495 6.686,-1.791 6.713,-1.814 6.709,-1.852 6.673,-1.904 6.637,-1.956 6.602,-1.967 6.567,-1.938 6.449,-1.828 6.344,-1.777 6.25,-1.786 6.156,-1.796 6.037,-1.875 5.894,-2.025 5.75,-2.175 5.518,-2.45 5.196,-2.85 4.943,-3.166 4.774,-3.401 4.691,-3.554 4.608,-3.708 4.552,-3.802 4.524,-3.837 4.49,-3.879 4.461,-3.902 4.436,-3.904 4.41,-3.907 4.368,-3.895 4.309,-3.868 3.265,-3.322 2.389,-2.752 1.681,-2.158 0.898,-1.502 0.337,-0.782 0,0" /></g><g
           transform="translate(107.5067,99.0387)"
           id="g64"><path
             id="path66"
             style="fill:#020203;fill-opacity:1;fill-rule:nonzero;stroke:none"
             d="m 0,0 c 0.018,-0.021 0.029,-0.044 0.033,-0.07 0.005,-0.026 0.003,-0.042 -0.003,-0.048 -0.582,-0.396 -1.088,-0.785 -1.517,-1.166 -0.054,-0.048 -0.101,-0.071 -0.142,-0.072 -0.041,0 -0.088,0.031 -0.14,0.092 L -5.635,3.28 c -0.017,0.021 -0.006,0.049 0.034,0.085 0.04,0.036 0.069,0.043 0.087,0.023 0.186,-0.22 0.339,-0.364 0.457,-0.434 0.118,-0.069 0.24,-0.078 0.367,-0.026 0.126,0.052 0.29,0.167 0.491,0.346 l 4.66,4.137 C 0.662,7.589 0.795,7.737 0.86,7.855 0.925,7.973 0.932,8.099 0.881,8.235 0.831,8.37 0.715,8.545 0.535,8.757 0.517,8.778 0.528,8.806 0.569,8.841 0.609,8.877 0.638,8.885 0.655,8.864 L 4.364,4.505 C 4.422,4.437 4.421,4.376 4.361,4.322 L 3.04,3.113 C 3.026,3.101 3,3.111 2.961,3.143 2.922,3.175 2.91,3.203 2.925,3.228 3.22,3.683 3.351,4.124 3.318,4.551 3.284,4.978 3.086,5.405 2.725,5.829 L 2.463,6.138 C 2.288,6.343 2.116,6.455 1.947,6.474 1.778,6.493 1.603,6.421 1.422,6.261 L -0.631,4.438 0.095,3.585 C 0.433,3.187 0.759,2.942 1.074,2.848 1.389,2.755 1.668,2.816 1.909,3.03 1.929,3.048 1.955,3.038 1.987,3 2.019,2.963 2.026,2.935 2.005,2.917 L 1.091,2.123 0.616,1.684 C 0.4,1.468 0.225,1.3 0.09,1.181 0.077,1.169 0.053,1.184 0.018,1.225 -0.017,1.266 -0.028,1.292 -0.014,1.304 0.261,1.549 0.385,1.849 0.359,2.204 0.333,2.56 0.148,2.94 -0.196,3.345 L -0.913,4.188 -3.188,2.169 C -3.382,1.996 -3.495,1.83 -3.524,1.671 -3.554,1.513 -3.499,1.351 -3.359,1.186 L -3.07,0.847 c 0.454,-0.534 0.926,-0.867 1.415,-0.999 0.489,-0.131 1.022,-0.073 1.6,0.175 C -0.042,0.035 -0.023,0.027 0,0" /></g><g
           transform="translate(36.9352,19.7779)"
           id="g68"><path
             id="path70"
             style="fill:#020203;fill-opacity:1;fill-rule:nonzero;stroke:none"
             d="M 0,0 C 0.923,1.645 2.826,2.125 4.483,1.155 5.323,0.663 5.889,-0.059 6.066,-0.923 L 5.279,-1.128 C 5.113,-0.429 4.716,0.079 4.117,0.429 2.888,1.149 1.469,0.776 0.778,-0.456 c -0.691,-1.231 -0.289,-2.67 0.94,-3.39 0.599,-0.35 1.233,-0.436 1.907,-0.23 L 3.849,-4.872 C 3.031,-5.153 2.13,-5.027 1.282,-4.53 -0.367,-3.564 -0.923,-1.645 0,0" /></g><g
           transform="translate(47.8781,14.2636)"
           id="g72"><path
             id="path74"
             style="fill:#020203;fill-opacity:1;fill-rule:nonzero;stroke:none"
             d="M 0,0 C 0.531,1.312 -0.039,2.683 -1.324,3.225 -2.625,3.775 -3.977,3.216 -4.508,1.904 -5.039,0.592 -4.468,-0.779 -3.167,-1.328 -1.883,-1.871 -0.531,-1.312 0,0 M -5.336,2.254 C -4.634,3.989 -2.8,4.731 -1.019,3.979 0.746,3.233 1.534,1.394 0.829,-0.35 0.123,-2.094 -1.707,-2.827 -3.472,-2.082 -5.254,-1.329 -6.039,0.519 -5.336,2.254" /></g><g
           transform="translate(50.9674,16.6073)"
           id="g76"><path
             id="path78"
             style="fill:#020203;fill-opacity:1;fill-rule:nonzero;stroke:none"
             d="M 0,0 0.864,-0.246 -0.61,-5.654 2.664,-6.585 2.455,-7.353 -1.683,-6.176 Z" /></g><g
           transform="translate(55.8893,15.2963)"
           id="g80"><path
             id="path82"
             style="fill:#020203;fill-opacity:1;fill-rule:nonzero;stroke:none"
             d="M 0,0 0.883,-0.156 -0.054,-5.688 3.294,-6.281 3.161,-7.066 -1.071,-6.317 Z" /></g><g
           transform="translate(65.0853,8.5743)"
           id="g84"><path
             id="path86"
             style="fill:#020203;fill-opacity:1;fill-rule:nonzero;stroke:none"
             d="M 0,0 -0.051,-0.795 -4.596,-0.49 -4.185,5.906 0.235,5.61 0.183,4.815 -3.341,5.051 -3.468,3.087 -0.327,2.876 -0.377,2.099 -3.517,2.31 -3.65,0.245 Z" /></g><g
           transform="translate(66.245,10.9514)"
           id="g88"><path
             id="path90"
             style="fill:#020203;fill-opacity:1;fill-rule:nonzero;stroke:none"
             d="M 0,0 C -0.093,1.894 1.254,3.347 3.162,3.445 4.129,3.494 4.987,3.199 5.593,2.569 L 5.039,1.963 C 4.53,2.46 3.927,2.668 3.238,2.632 1.823,2.56 0.826,1.464 0.895,0.046 c 0.07,-1.418 1.169,-2.407 2.584,-2.335 0.689,0.036 1.268,0.313 1.726,0.859 L 5.816,-1.977 C 5.275,-2.665 4.45,-3.055 3.474,-3.105 1.575,-3.202 0.093,-1.893 0,0" /></g><g
           transform="translate(74.0892,14.0242)"
           id="g92"><path
             id="path94"
             style="fill:#020203;fill-opacity:1;fill-rule:nonzero;stroke:none"
             d="M 0,0 -2.125,-0.345 -2.247,0.442 2.88,1.274 3.002,0.487 0.877,0.142 1.738,-5.402 0.862,-5.545 Z" /></g><g
           transform="translate(77.7377,15.5361)"
           id="g96"><path
             id="path98"
             style="fill:#020203;fill-opacity:1;fill-rule:nonzero;stroke:none"
             d="M 0,0 0.873,0.21 2.315,-6.029 1.442,-6.239 Z" /></g><g
           transform="translate(86.2276,14.7975)"
           id="g100"><path
             id="path102"
             style="fill:#020203;fill-opacity:1;fill-rule:nonzero;stroke:none"
             d="M 0,0 C -0.447,1.344 -1.761,1.991 -3.077,1.534 -4.409,1.071 -5.065,-0.259 -4.618,-1.603 -4.171,-2.947 -2.857,-3.594 -1.525,-3.131 -0.209,-2.674 0.447,-1.344 0,0 m -5.467,-1.898 c -0.592,1.778 0.309,3.57 2.134,4.204 1.808,0.627 3.588,-0.225 4.182,-2.011 0.594,-1.787 -0.308,-3.57 -2.117,-4.198 -1.825,-0.634 -3.608,0.227 -4.199,2.005" /></g><g
           transform="translate(91.8411,21.0563)"
           id="g104"><path
             id="path106"
             style="fill:#020203;fill-opacity:1;fill-rule:nonzero;stroke:none"
             d="m 0,0 2.817,-5.729 -0.657,-0.337 -5.466,2.546 2.101,-4.273 -0.801,-0.411 -2.817,5.729 0.657,0.337 5.466,-2.545 -2.101,4.272 z" /></g><g
           transform="translate(99.9829,46.6811)"
           id="g108"><path
             id="path110"
             style="fill:#020203;fill-opacity:1;fill-rule:nonzero;stroke:none"
             d="m 0,0 c -0.156,0 -0.233,-0.032 -0.233,-0.095 -1.426,-5.163 -4.713,-7.744 -9.86,-7.744 -2.419,0 -4.691,0.689 -6.814,2.067 -2.124,1.377 -3.814,3.23 -5.07,5.558 -1.256,2.328 -1.884,4.838 -1.884,7.531 0,1.756 0.353,3.158 0.629,3.985 2.016,0.249 3.989,0.73 5.918,1.445 2.961,1.098 5.41,2.783 7.346,5.055 0.942,1.106 1.653,2.34 2.137,3.701 1.639,-0.268 3.026,-0.87 4.158,-1.81 1.581,-1.315 2.713,-3.286 3.395,-5.915 0.031,-0.095 0.132,-0.135 0.303,-0.119 0.17,0.016 0.255,0.072 0.255,0.167 l -0.558,5.416 c -0.031,0.411 -0.07,0.657 -0.116,0.736 -0.047,0.079 -0.163,0.182 -0.349,0.309 -1.458,0.76 -2.837,1.29 -4.139,1.591 -0.772,0.179 -1.676,0.304 -2.709,0.376 0.349,1.228 0.526,2.551 0.526,3.972 0,4.143 -1.614,7.226 -4.839,9.247 -3.226,2.022 -7.419,3.033 -12.579,3.033 -0.411,0 -2.903,-0.075 -7.477,-0.225 -1.819,-0.149 -3.431,-0.224 -4.839,-0.224 -1.407,0 -3.342,0.049 -5.805,0.149 l -4.311,0.075 c -0.118,0 -0.176,-0.149 -0.176,-0.449 0,-0.299 0.058,-0.449 0.176,-0.449 2.287,0 3.972,-0.138 5.058,-0.412 1.085,-0.275 1.817,-0.762 2.199,-1.46 0.381,-0.7 0.572,-1.797 0.572,-3.295 v -8.922 c -1.015,1.14 -2.171,2.109 -3.469,2.904 -1.671,1.023 -4.032,2.309 -7.081,3.857 -2.874,1.447 -5.117,2.658 -6.73,3.631 -1.613,0.974 -2.977,2.183 -4.09,3.632 -0.989,1.283 -1.537,2.783 -1.649,4.499 -0.014,0.219 -0.022,0.441 -0.022,0.667 0,1.905 0.5,3.596 1.495,5.078 0.283,0.421 0.604,0.826 0.968,1.212 1.641,1.747 4.222,2.621 7.741,2.621 3.552,0 6.34,-0.89 8.365,-2.668 0.147,-0.129 0.292,-0.263 0.432,-0.402 2.052,-2.047 3.195,-4.369 3.43,-6.964 0.058,-0.2 0.249,-0.299 0.572,-0.299 0.027,0 0.051,0.002 0.075,0.003 0.271,0.015 0.409,0.113 0.409,0.296 l -0.792,7.938 c 0,0.548 -0.44,0.973 -1.319,1.272 -3.461,1.199 -6.804,1.798 -10.029,1.798 -2.757,0 -5.337,-0.438 -7.741,-1.311 -2.405,-0.874 -4.354,-2.184 -5.85,-3.931 -1.495,-1.748 -2.243,-3.869 -2.243,-6.365 0,-0.195 0.006,-0.386 0.015,-0.576 0.093,-1.952 0.658,-3.644 1.701,-5.077 1.143,-1.573 2.52,-2.883 4.134,-3.931 1.612,-1.049 3.827,-2.272 6.642,-3.669 2.872,-1.449 5.146,-2.709 6.817,-3.782 1.671,-1.074 3.093,-2.422 4.267,-4.043 1.172,-1.623 1.759,-3.557 1.759,-5.803 0,-0.748 -0.063,-1.447 -0.188,-2.098 -0.392,-2.046 -1.4,-3.619 -3.023,-4.716 -2.142,-1.449 -4.765,-2.172 -7.873,-2.172 -4.398,0 -7.859,1.273 -10.38,3.819 -2.522,2.546 -4.077,5.541 -4.663,8.985 -0.059,0.199 -0.235,0.287 -0.527,0.263 -0.295,-0.026 -0.44,-0.139 -0.44,-0.338 V 17.55 l 0.302,-2.233 1.017,-7.502 c 0.058,-0.4 0.132,-0.699 0.22,-0.898 0.088,-0.2 0.278,-0.375 0.572,-0.524 1.799,-0.766 3.473,-1.344 5.024,-1.736 0.37,-0.093 0.734,-0.177 1.09,-0.249 1.847,-0.374 3.796,-0.561 5.85,-0.561 3.87,0 7.139,0.561 9.808,1.684 0.631,0.266 1.225,0.555 1.782,0.866 1.461,0.814 2.668,1.781 3.622,2.902 0.22,0.259 0.429,0.525 0.622,0.8 0.937,1.336 1.549,2.775 1.834,4.317 0.009,-0.185 0.015,-0.371 0.015,-0.56 0,-2.347 -0.675,-4.481 -2.023,-6.402 -0.142,-0.202 -0.292,-0.398 -0.448,-0.59 v -9.317 c 0,-1.498 -0.191,-2.609 -0.572,-3.332 -0.382,-0.725 -1.114,-1.211 -2.199,-1.46 -1.086,-0.251 -2.771,-0.375 -5.058,-0.375 -0.118,0 -0.176,-0.149 -0.176,-0.449 0,-0.3 0.058,-0.449 0.176,-0.449 1.876,0 3.343,0.024 4.398,0.075 l 5.806,0.074 7.654,-0.074 c 1.348,-0.051 3.224,-0.075 5.63,-0.075 0.175,0 0.263,0.149 0.263,0.449 0,0.3 -0.088,0.449 -0.263,0.449 -3.286,0 -5.674,0.15 -7.17,0.45 -1.495,0.299 -2.507,0.81 -3.035,1.534 -0.528,0.724 -0.792,1.884 -0.792,3.482 v 34.22 c 0,1.797 0.22,3.057 0.66,3.782 0.44,0.723 1.158,1.185 2.156,1.385 0.996,0.199 2.696,0.3 5.102,0.3 2.58,0 4.94,-0.513 7.081,-1.536 2.14,-1.023 3.827,-2.496 5.058,-4.417 1.232,-1.923 1.848,-4.207 1.848,-6.852 0,-4.094 -1.452,-7.214 -4.355,-9.36 -2.903,-2.147 -6.437,-3.22 -10.6,-3.22 -1.174,0 -2.229,0.1 -3.167,0.3 -0.118,0.049 -0.22,0 -0.308,-0.15 -0.088,-0.15 -0.132,-0.299 -0.132,-0.449 0,-0.25 0.088,-0.375 0.264,-0.375 1.114,-0.25 2.551,-0.374 4.311,-0.374 0.197,0 0.393,0.002 0.59,0.006 -0.404,-0.731 -0.921,-2.022 -0.921,-3.837 0,-3.104 0.712,-5.852 2.139,-8.243 1.426,-2.392 3.403,-4.245 5.93,-5.559 2.527,-1.314 5.403,-1.971 8.628,-1.971 1.954,0 3.636,0.166 5.047,0.499 1.411,0.332 2.922,0.926 4.535,1.781 0.186,0.126 0.309,0.238 0.372,0.333 0.062,0.095 0.108,0.332 0.14,0.712 l 0.372,5.036 C 0.326,-0.047 0.217,0 0,0" /></g><g
           transform="translate(108.957,48.2473)"
           id="g112"><path
             id="path114"
             style="fill:#020203;fill-opacity:1;fill-rule:nonzero;stroke:none"
             d="m 0,0 c -2.325,-5.615 -5.654,-10.658 -9.894,-14.989 -4.239,-4.331 -9.177,-7.731 -14.674,-10.106 -5.691,-2.459 -11.737,-3.705 -17.969,-3.705 -6.232,0 -12.278,1.246 -17.969,3.705 -5.497,2.375 -10.434,5.775 -14.674,10.106 -4.24,4.331 -7.569,9.374 -9.894,14.989 -2.407,5.813 -3.628,11.989 -3.628,18.355 0,6.366 1.221,12.541 3.628,18.354 2.325,5.616 5.654,10.659 9.894,14.989 4.24,4.331 9.177,7.731 14.674,10.106 5.691,2.459 11.737,3.706 17.969,3.706 6.232,0 12.278,-1.247 17.969,-3.706 5.497,-2.375 10.435,-5.775 14.674,-10.106 C -5.654,47.368 -2.325,42.325 0,36.709 2.407,30.896 3.628,24.721 3.628,18.355 3.628,11.989 2.407,5.813 0,0 m -9.365,52.238 c -4.308,4.401 -9.325,7.856 -14.911,10.27 -5.784,2.498 -11.928,3.765 -18.261,3.765 -6.333,0 -12.477,-1.267 -18.26,-3.765 -5.587,-2.414 -10.604,-5.869 -14.912,-10.27 -4.308,-4.4 -7.69,-9.525 -10.053,-15.231 -2.447,-5.908 -3.687,-12.183 -3.687,-18.652 0,-6.469 1.24,-12.745 3.687,-18.653 2.363,-5.706 5.745,-10.83 10.053,-15.231 4.308,-4.401 9.325,-7.856 14.912,-10.269 5.783,-2.499 11.927,-3.766 18.26,-3.766 6.333,0 12.477,1.267 18.261,3.766 5.586,2.413 10.603,5.868 14.911,10.269 4.308,4.401 7.691,9.525 10.054,15.231 2.446,5.908 3.686,12.184 3.686,18.653 0,6.469 -1.24,12.744 -3.686,18.652 -2.363,5.706 -5.746,10.831 -10.054,15.231" /></g><g
           transform="translate(122.6051,42.3582)"
           id="g116"><path
             id="path118"
             style="fill:#020203;fill-opacity:1;fill-rule:nonzero;stroke:none"
             d="m 0,0 c -3.071,-7.417 -7.468,-14.078 -13.068,-19.798 -5.6,-5.721 -12.121,-10.212 -19.382,-13.349 -7.517,-3.247 -15.503,-4.894 -23.735,-4.894 -8.232,0 -16.218,1.647 -23.735,4.894 -7.261,3.137 -13.782,7.628 -19.382,13.349 -5.6,5.72 -9.997,12.381 -13.068,19.798 -3.179,7.678 -4.792,15.835 -4.792,24.244 0,8.409 1.613,16.565 4.792,24.244 3.071,7.416 7.468,14.077 13.068,19.798 5.6,5.72 12.121,10.211 19.382,13.348 7.517,3.248 15.503,4.895 23.735,4.895 8.232,0 16.218,-1.647 23.735,-4.895 7.261,-3.137 13.782,-7.628 19.382,-13.348 C -7.468,62.565 -3.071,55.904 0,48.488 3.179,40.809 4.792,32.653 4.792,24.244 4.792,15.835 3.179,7.678 0,0 m 1.291,49.045 c -3.142,7.588 -7.639,14.402 -13.368,20.253 -5.728,5.852 -12.399,10.446 -19.827,13.655 -7.691,3.323 -15.86,5.007 -24.281,5.007 -8.421,0 -16.59,-1.684 -24.281,-5.007 -7.428,-3.209 -14.099,-7.803 -19.827,-13.655 -5.729,-5.851 -10.226,-12.665 -13.368,-20.253 -3.253,-7.855 -4.902,-16.2 -4.902,-24.801 0,-8.601 1.649,-16.946 4.902,-24.802 3.142,-7.587 7.639,-14.401 13.368,-20.253 5.728,-5.851 12.399,-10.445 19.827,-13.654 7.691,-3.323 15.86,-5.008 24.281,-5.008 8.421,0 16.59,1.685 24.281,5.008 7.428,3.209 14.099,7.803 19.827,13.654 5.729,5.852 10.226,12.666 13.368,20.253 3.253,7.856 4.902,16.201 4.902,24.802 0,8.601 -1.649,16.946 -4.902,24.801" /></g><g
           transform="translate(15.34,66.602)"
           id="g120"><path
             id="path122"
             style="fill:#020203;fill-opacity:1;fill-rule:nonzero;stroke:none"
             d="m 0,0 c 0,-1.708 -1.356,-3.093 -3.028,-3.093 -1.672,0 -3.028,1.385 -3.028,3.093 0,1.708 1.356,3.093 3.028,3.093 C -1.356,3.093 0,1.708 0,0" /></g><g
           transform="translate(123.5557,66.602)"
           id="g124"><path
             id="path126"
             style="fill:#020203;fill-opacity:1;fill-rule:nonzero;stroke:none"
             d="m 0,0 c 0,-1.708 -1.356,-3.093 -3.028,-3.093 -1.672,0 -3.028,1.385 -3.028,3.093 0,1.708 1.356,3.093 3.028,3.093 C -1.356,3.093 0,1.708 0,0" /></g></g></g></g></svg>